<svg xmlns="http://www.w3.org/2000/svg" width="128" height="128" shape-rendering="crispEdges" version="1.1"><rect width="6" height="2" x="36" y="10" fill="#9C572B"/><rect width="6" height="2" x="84" y="10" fill="#9C572B"/><rect width="2" height="4" x="34" y="12" fill="#9C572B"/><rect width="6" height="2" x="36" y="12" fill="#C5743B"/><rect width="2" height="2" x="42" y="12" fill="#9C572B"/><rect width="2" height="2" x="82" y="12" fill="#9C572B"/><rect width="6" height="2" x="84" y="12" fill="#C5743B"/><rect width="2" height="4" x="90" y="12" fill="#9C572B"/><rect width="6" height="4" x="36" y="14" fill="#D78147"/><rect width="2" height="4" x="42" y="14" fill="#C5743B"/><rect width="2" height="2" x="44" y="14" fill="#9C572B"/><rect width="2" height="2" x="80" y="14" fill="#9C572B"/><rect width="2" height="4" x="82" y="14" fill="#C5743B"/><rect width="6" height="4" x="84" y="14" fill="#D78147"/><rect width="2" height="8" x="34" y="16" fill="#D78147"/><rect width="2" height="2" x="44" y="16" fill="#C5743B"/><rect width="2" height="2" x="46" y="16" fill="#9C572B"/><rect width="2" height="2" x="78" y="16" fill="#9C572B"/><rect width="2" height="2" x="80" y="16" fill="#C5743B"/><rect width="2" height="8" x="90" y="16" fill="#D78147"/><rect width="2" height="10" x="92" y="16" fill="#9C572B"/><rect width="2" height="8" x="32" y="18" fill="#9C572B"/><rect width="5" height="4" x="36" y="18" fill="#F8DCB6"/><rect width="1" height="1" x="41" y="18" fill="#F7D4A8"/><rect width="4" height="2" x="42" y="18" fill="#D78147"/><rect width="2" height="4" x="46" y="18" fill="#C5743B"/><rect width="2" height="2" x="48" y="18" fill="#9C572B"/><rect width="2" height="2" x="76" y="18" fill="#9C572B"/><rect width="2" height="4" x="78" y="18" fill="#C5743B"/><rect width="4" height="2" x="80" y="18" fill="#D78147"/><rect width="6" height="4" x="84" y="18" fill="#F8DCB6"/><rect width="1" height="3" x="41" y="19" fill="#F8DCB6"/><rect width="1" height="2" x="42" y="20" fill="#F8DCB6"/><rect width="1" height="1" x="43" y="20" fill="#F7D4A8"/><rect width="2" height="4" x="44" y="20" fill="#D78147"/><rect width="2" height="12" x="48" y="20" fill="#C5743B"/><rect width="2" height="2" x="50" y="20" fill="#9C572B"/><rect width="2" height="2" x="74" y="20" fill="#9C572B"/><rect width="2" height="12" x="76" y="20" fill="#C5743B"/><rect width="2" height="4" x="80" y="20" fill="#D78147"/><rect width="2" height="2" x="82" y="20" fill="#F8DCB6"/><rect width="1" height="1" x="43" y="21" fill="#F8DCB6"/><rect width="4" height="6" x="36" y="22" fill="#F8DCB6"/><rect width="2" height="4" x="40" y="22" fill="#FCF2D9"/><rect width="2" height="2" x="42" y="22" fill="#FDEDCF"/><rect width="2" height="4" x="46" y="22" fill="#D78147"/><rect width="2" height="8" x="50" y="22" fill="#C5743B"/><rect width="22" height="2" x="52" y="22" fill="#9C572B"/><rect width="2" height="8" x="74" y="22" fill="#C5743B"/><rect width="2" height="4" x="78" y="22" fill="#D78147"/><rect width="1" height="1" x="82" y="22" fill="#FDEDCF"/><rect width="3" height="4" x="83" y="22" fill="#FCF2D9"/><rect width="4" height="6" x="86" y="22" fill="#F8DCB6"/><rect width="1" height="5" x="82" y="23" fill="#FCF2D9"/><rect width="2" height="14" x="34" y="24" fill="#F8DCB6"/><rect width="4" height="4" x="42" y="24" fill="#FCF2D9"/><rect width="4" height="2" x="52" y="24" fill="#C5743B"/><rect width="1" height="34" x="56" y="24" fill="#E99E4B"/><rect width="1" height="1" x="57" y="24" fill="#ECA451"/><rect width="12" height="3" x="58" y="24" fill="#E99E4B"/><rect width="4" height="2" x="70" y="24" fill="#C5743B"/><rect width="2" height="4" x="80" y="24" fill="#FCF2D9"/><rect width="2" height="16" x="90" y="24" fill="#F8DCB6"/><rect width="2" height="22" x="94" y="24" fill="#9C572B"/><rect width="1" height="8" x="57" y="25" fill="#E99E4B"/><rect width="2" height="20" x="30" y="26" fill="#9C572B"/><rect width="2" height="2" x="32" y="26" fill="#C5743B"/><rect width="2" height="2" x="40" y="26" fill="#F8DCB6"/><rect width="2" height="6" x="46" y="26" fill="#F8DCB6"/><rect width="2" height="2" x="52" y="26" fill="#C5743B"/><rect width="2" height="4" x="54" y="26" fill="#DB9143"/><rect width="2" height="4" x="70" y="26" fill="#DB9143"/><rect width="2" height="2" x="72" y="26" fill="#C5743B"/><rect width="2" height="6" x="78" y="26" fill="#F8DCB6"/><rect width="1" height="2" x="83" y="26" fill="#FCF2D9"/><rect width="2" height="2" x="84" y="26" fill="#F8DCB6"/><rect width="2" height="2" x="92" y="26" fill="#C5743B"/><rect width="5" height="2" x="58" y="27" fill="#E99E4B"/><rect width="1" height="1" x="63" y="27" fill="#ECA451"/><rect width="6" height="22" x="64" y="27" fill="#E99E4B"/><rect width="2" height="12" x="32" y="28" fill="#D78147"/><rect width="2" height="10" x="36" y="28" fill="#F8DCB6"/><rect width="4" height="8" x="38" y="28" fill="#C29D7D"/><rect width="4" height="2" x="42" y="28" fill="#F8DCB6"/><rect width="2" height="2" x="52" y="28" fill="#DB9143"/><rect width="1" height="1" x="63" y="28" fill="#E99E4B"/><rect width="2" height="2" x="72" y="28" fill="#DB9143"/><rect width="4" height="2" x="80" y="28" fill="#F8DCB6"/><rect width="4" height="8" x="84" y="28" fill="#C29D7D"/><rect width="2" height="10" x="88" y="28" fill="#F8DCB6"/><rect width="2" height="12" x="92" y="28" fill="#D78147"/><rect width="3" height="27" x="58" y="29" fill="#E99E4B"/><rect width="1" height="1" x="61" y="29" fill="#ECA451"/><rect width="1" height="29" x="62" y="29" fill="#E99E4B"/><rect width="1" height="1" x="63" y="29" fill="#ECA451"/><rect width="2" height="4" x="42" y="30" fill="#D2B08D"/><rect width="2" height="2" x="44" y="30" fill="#F8DCB6"/><rect width="6" height="3" x="50" y="30" fill="#E99E4B"/><rect width="1" height="3" x="61" y="30" fill="#E99E4B"/><rect width="1" height="15" x="63" y="30" fill="#E99E4B"/><rect width="6" height="1" x="70" y="30" fill="#E99E4B"/><rect width="2" height="2" x="80" y="30" fill="#F8DCB6"/><rect width="2" height="4" x="82" y="30" fill="#D2B08D"/><rect width="5" height="2" x="70" y="31" fill="#E99E4B"/><rect width="1" height="1" x="75" y="31" fill="#ECA451"/><rect width="1" height="22" x="44" y="32" fill="#E99E4B"/><rect width="3" height="1" x="45" y="32" fill="#ECA451"/><rect width="2" height="1" x="48" y="32" fill="#E99E4B"/><rect width="3" height="1" x="75" y="32" fill="#E99E4B"/><rect width="2" height="1" x="78" y="32" fill="#ECA451"/><rect width="1" height="22" x="80" y="32" fill="#E99E4B"/><rect width="1" height="2" x="81" y="32" fill="#ECA451"/><rect width="1" height="5" x="45" y="33" fill="#ECA451"/><rect width="1" height="21" x="46" y="33" fill="#E99E4B"/><rect width="2" height="1" x="47" y="33" fill="#ECA451"/><rect width="6" height="9" x="49" y="33" fill="#E99E4B"/><rect width="1" height="1" x="55" y="33" fill="#ECA451"/><rect width="1" height="1" x="57" y="33" fill="#ECA451"/><rect width="1" height="1" x="61" y="33" fill="#ECA451"/><rect width="1" height="13" x="70" y="33" fill="#E99E4B"/><rect width="1" height="1" x="71" y="33" fill="#ECA451"/><rect width="5" height="3" x="72" y="33" fill="#E99E4B"/><rect width="1" height="1" x="77" y="33" fill="#ECA451"/><rect width="1" height="21" x="78" y="33" fill="#E99E4B"/><rect width="1" height="1" x="79" y="33" fill="#ECA451"/><rect width="2" height="21" x="42" y="34" fill="#E99E4B"/><rect width="2" height="18" x="47" y="34" fill="#E99E4B"/><rect width="1" height="11" x="55" y="34" fill="#E99E4B"/><rect width="1" height="13" x="57" y="34" fill="#E99E4B"/><rect width="1" height="7" x="61" y="34" fill="#E99E4B"/><rect width="1" height="11" x="71" y="34" fill="#E99E4B"/><rect width="1" height="6" x="77" y="34" fill="#E99E4B"/><rect width="1" height="20" x="79" y="34" fill="#E99E4B"/><rect width="3" height="6" x="81" y="34" fill="#E99E4B"/><rect width="2" height="2" x="38" y="36" fill="#C29D7D"/><rect width="2" height="7" x="40" y="36" fill="#E99E4B"/><rect width="3" height="5" x="72" y="36" fill="#E99E4B"/><rect width="1" height="1" x="75" y="36" fill="#ECA451"/><rect width="1" height="1" x="76" y="36" fill="#E99E4B"/><rect width="2" height="5" x="84" y="36" fill="#E99E4B"/><rect width="2" height="2" x="86" y="36" fill="#C29D7D"/><rect width="1" height="5" x="75" y="37" fill="#E99E4B"/><rect width="1" height="1" x="76" y="37" fill="#ECA451"/><rect width="1" height="1" x="34" y="38" fill="#F8DCB6"/><rect width="1" height="1" x="35" y="38" fill="#F7D4A8"/><rect width="1" height="1" x="36" y="38" fill="#ECA451"/><rect width="3" height="1" x="37" y="38" fill="#E99E4B"/><rect width="1" height="3" x="45" y="38" fill="#E99E4B"/><rect width="1" height="6" x="76" y="38" fill="#E99E4B"/><rect width="4" height="1" x="86" y="38" fill="#E99E4B"/><rect width="1" height="1" x="34" y="39" fill="#F7D4A8"/><rect width="1" height="1" x="35" y="39" fill="#F8DCB6"/><rect width="1" height="15" x="36" y="39" fill="#E99E4B"/><rect width="2" height="1" x="37" y="39" fill="#ECA451"/><rect width="1" height="4" x="39" y="39" fill="#E99E4B"/><rect width="3" height="5" x="86" y="39" fill="#E99E4B"/><rect width="1" height="1" x="89" y="39" fill="#ECA451"/><rect width="4" height="11" x="32" y="40" fill="#E99E4B"/><rect width="1" height="1" x="37" y="40" fill="#ECA451"/><rect width="1" height="1" x="38" y="40" fill="#E99E4B"/><rect width="1" height="2" x="77" y="40" fill="#ECA451"/><rect width="1" height="2" x="81" y="40" fill="#ECA451"/><rect width="2" height="16" x="82" y="40" fill="#E99E4B"/><rect width="5" height="8" x="89" y="40" fill="#E99E4B"/><rect width="1" height="4" x="37" y="41" fill="#E99E4B"/><rect width="1" height="1" x="38" y="41" fill="#ECA451"/><rect width="1" height="1" x="45" y="41" fill="#ECA451"/><rect width="1" height="1" x="61" y="41" fill="#ECA451"/><rect width="1" height="3" x="72" y="41" fill="#E99E4B"/><rect width="1" height="1" x="73" y="41" fill="#ECA451"/><rect width="1" height="3" x="74" y="41" fill="#E99E4B"/><rect width="1" height="1" x="84" y="41" fill="#ECA451"/><rect width="1" height="12" x="85" y="41" fill="#E99E4B"/><rect width="1" height="13" x="38" y="42" fill="#E99E4B"/><rect width="1" height="12" x="45" y="42" fill="#E99E4B"/><rect width="2" height="2" x="49" y="42" fill="#E99E4B"/><rect width="1" height="2" x="51" y="42" fill="#ECA451"/><rect width="1" height="1" x="52" y="42" fill="#E99E4B"/><rect width="1" height="2" x="53" y="42" fill="#ECA451"/><rect width="1" height="2" x="54" y="42" fill="#E99E4B"/><rect width="1" height="14" x="61" y="42" fill="#E99E4B"/><rect width="1" height="1" x="73" y="42" fill="#E99E4B"/><rect width="1" height="2" x="75" y="42" fill="#ECA451"/><rect width="1" height="8" x="77" y="42" fill="#E99E4B"/><rect width="1" height="12" x="81" y="42" fill="#E99E4B"/><rect width="1" height="13" x="84" y="42" fill="#E99E4B"/><rect width="2" height="1" x="39" y="43" fill="#ECA451"/><rect width="1" height="1" x="41" y="43" fill="#E99E4B"/><rect width="1" height="1" x="52" y="43" fill="#ECA451"/><rect width="1" height="1" x="73" y="43" fill="#ECA451"/><rect width="2" height="10" x="39" y="44" fill="#E99E4B"/><rect width="1" height="1" x="41" y="44" fill="#ECA451"/><rect width="1" height="8" x="49" y="44" fill="#E99E4B"/><rect width="4" height="1" x="50" y="44" fill="#FDEDCF"/><rect width="1" height="1" x="54" y="44" fill="#ECA451"/><rect width="1" height="1" x="72" y="44" fill="#FDEDCF"/><rect width="1" height="6" x="73" y="44" fill="#FCF2D9"/><rect width="2" height="6" x="74" y="44" fill="#FDEDCF"/><rect width="1" height="1" x="76" y="44" fill="#ECA451"/><rect width="2" height="1" x="86" y="44" fill="#E99E4B"/><rect width="1" height="1" x="88" y="44" fill="#ECA451"/><rect width="1" height="1" x="37" y="45" fill="#ECA451"/><rect width="1" height="10" x="41" y="45" fill="#E99E4B"/><rect width="2" height="3" x="50" y="45" fill="#FDEDCF"/><rect width="2" height="5" x="52" y="45" fill="#FCF2D9"/><rect width="1" height="1" x="54" y="45" fill="#E99E4B"/><rect width="1" height="1" x="55" y="45" fill="#ECA451"/><rect width="1" height="1" x="63" y="45" fill="#ECA451"/><rect width="1" height="1" x="71" y="45" fill="#ECA451"/><rect width="1" height="5" x="72" y="45" fill="#FCF2D9"/><rect width="1" height="5" x="76" y="45" fill="#E99E4B"/><rect width="1" height="1" x="86" y="45" fill="#E99E4B"/><rect width="1" height="1" x="87" y="45" fill="#ECA451"/><rect width="1" height="10" x="88" y="45" fill="#E99E4B"/><rect width="2" height="4" x="28" y="46" fill="#C5743B"/><rect width="2" height="12" x="30" y="46" fill="#E99E4B"/><rect width="1" height="8" x="37" y="46" fill="#E99E4B"/><rect width="1" height="1" x="54" y="46" fill="#FBE7C3"/><rect width="1" height="5" x="55" y="46" fill="#FDEDCF"/><rect width="1" height="10" x="63" y="46" fill="#E99E4B"/><rect width="2" height="1" x="70" y="46" fill="#FBE7C3"/><rect width="1" height="1" x="86" y="46" fill="#ECA451"/><rect width="1" height="8" x="87" y="46" fill="#E99E4B"/><rect width="2" height="12" x="94" y="46" fill="#E99E4B"/><rect width="2" height="4" x="96" y="46" fill="#C5743B"/><rect width="1" height="5" x="54" y="47" fill="#FDEDCF"/><rect width="1" height="1" x="57" y="47" fill="#ECA451"/><rect width="2" height="4" x="70" y="47" fill="#FDEDCF"/><rect width="1" height="8" x="86" y="47" fill="#E99E4B"/><rect width="1" height="2" x="50" y="48" fill="#FDEDCF"/><rect width="1" height="1" x="51" y="48" fill="#FCF2D9"/><rect width="1" height="1" x="57" y="48" fill="#E99E4B"/><rect width="1" height="1" x="89" y="48" fill="#ECA451"/><rect width="4" height="5" x="90" y="48" fill="#E99E4B"/><rect width="1" height="1" x="51" y="49" fill="#FDEDCF"/><rect width="1" height="1" x="57" y="49" fill="#ECA451"/><rect width="5" height="6" x="64" y="49" fill="#E99E4B"/><rect width="1" height="1" x="69" y="49" fill="#ECA451"/><rect width="1" height="5" x="89" y="49" fill="#E99E4B"/><rect width="2" height="6" x="26" y="50" fill="#C5743B"/><rect width="2" height="10" x="28" y="50" fill="#E99E4B"/><rect width="2" height="2" x="50" y="50" fill="#E99E4B"/><rect width="2" height="2" x="52" y="50" fill="#FBE7C3"/><rect width="1" height="6" x="57" y="50" fill="#E99E4B"/><rect width="1" height="8" x="69" y="50" fill="#E99E4B"/><rect width="2" height="1" x="72" y="50" fill="#FDEDCF"/><rect width="4" height="1" x="74" y="50" fill="#ECA451"/><rect width="2" height="10" x="96" y="50" fill="#E99E4B"/><rect width="2" height="6" x="98" y="50" fill="#C5743B"/><rect width="3" height="2" x="32" y="51" fill="#E99E4B"/><rect width="1" height="1" x="35" y="51" fill="#ECA451"/><rect width="1" height="1" x="55" y="51" fill="#FBE7C3"/><rect width="1" height="1" x="70" y="51" fill="#FBE7C3"/><rect width="1" height="1" x="71" y="51" fill="#FDEDCF"/><rect width="2" height="1" x="72" y="51" fill="#FBE7C3"/><rect width="4" height="1" x="74" y="51" fill="#E99E4B"/><rect width="1" height="1" x="35" y="52" fill="#E99E4B"/><rect width="1" height="2" x="47" y="52" fill="#E99E4B"/><rect width="4" height="2" x="48" y="52" fill="#06041A"/><rect width="3" height="2" x="52" y="52" fill="#E99E4B"/><rect width="1" height="1" x="55" y="52" fill="#ECA451"/><rect width="3" height="2" x="70" y="52" fill="#E99E4B"/><rect width="1" height="1" x="73" y="52" fill="#ECA451"/><rect width="4" height="2" x="74" y="52" fill="#06041A"/><rect width="2" height="2" x="32" y="53" fill="#E99E4B"/><rect width="2" height="1" x="34" y="53" fill="#ECA451"/><rect width="1" height="3" x="55" y="53" fill="#E99E4B"/><rect width="1" height="1" x="73" y="53" fill="#E99E4B"/><rect width="1" height="1" x="85" y="53" fill="#ECA451"/><rect width="1" height="3" x="90" y="53" fill="#E99E4B"/><rect width="1" height="3" x="91" y="53" fill="#ECA451"/><rect width="2" height="2" x="92" y="53" fill="#E99E4B"/><rect width="1" height="2" x="34" y="54" fill="#E99E4B"/><rect width="3" height="2" x="35" y="54" fill="#ECA451"/><rect width="1" height="2" x="39" y="54" fill="#ECA451"/><rect width="1" height="1" x="40" y="54" fill="#E99E4B"/><rect width="4" height="2" x="44" y="54" fill="#06041A"/><rect width="2" height="2" x="48" y="54" fill="#FBFBF9"/><rect width="4" height="6" x="50" y="54" fill="#06041A"/><rect width="1" height="4" x="54" y="54" fill="#E99E4B"/><rect width="2" height="1" x="70" y="54" fill="#E99E4B"/><rect width="2" height="6" x="72" y="54" fill="#06041A"/><rect width="2" height="2" x="74" y="54" fill="#FBFBF9"/><rect width="6" height="2" x="76" y="54" fill="#06041A"/><rect width="1" height="1" x="85" y="54" fill="#E99E4B"/><rect width="1" height="2" x="87" y="54" fill="#ECA451"/><rect width="1" height="2" x="89" y="54" fill="#ECA451"/><rect width="1" height="1" x="32" y="55" fill="#E99E4B"/><rect width="1" height="1" x="33" y="55" fill="#ECA451"/><rect width="1" height="1" x="38" y="55" fill="#ECA451"/><rect width="2" height="1" x="40" y="55" fill="#ECA451"/><rect width="1" height="1" x="42" y="55" fill="#E99E4B"/><rect width="1" height="1" x="43" y="55" fill="#ECA451"/><rect width="1" height="3" x="64" y="55" fill="#E99E4B"/><rect width="1" height="3" x="65" y="55" fill="#ECA451"/><rect width="3" height="3" x="66" y="55" fill="#E99E4B"/><rect width="1" height="2" x="70" y="55" fill="#E99E4B"/><rect width="1" height="1" x="71" y="55" fill="#ECA451"/><rect width="3" height="1" x="84" y="55" fill="#ECA451"/><rect width="1" height="1" x="88" y="55" fill="#ECA451"/><rect width="2" height="1" x="92" y="55" fill="#ECA451"/><rect width="2" height="14" x="24" y="56" fill="#C5743B"/><rect width="2" height="14" x="26" y="56" fill="#E99E4B"/><rect width="8" height="18" x="32" y="56" fill="#FDEDCF"/><rect width="6" height="2" x="40" y="56" fill="#F2B35F"/><rect width="4" height="2" x="46" y="56" fill="#06041A"/><rect width="1" height="2" x="55" y="56" fill="#ECA451"/><rect width="1" height="2" x="57" y="56" fill="#ECA451"/><rect width="1" height="2" x="58" y="56" fill="#E99E4B"/><rect width="1" height="2" x="59" y="56" fill="#ECA451"/><rect width="1" height="2" x="60" y="56" fill="#E99E4B"/><rect width="1" height="1" x="61" y="56" fill="#ECA451"/><rect width="1" height="1" x="63" y="56" fill="#ECA451"/><rect width="1" height="1" x="71" y="56" fill="#E99E4B"/><rect width="6" height="2" x="74" y="56" fill="#06041A"/><rect width="6" height="2" x="80" y="56" fill="#F2B35F"/><rect width="6" height="20" x="86" y="56" fill="#FDEDCF"/><rect width="2" height="1" x="92" y="56" fill="#F6CD9C"/><rect width="2" height="14" x="98" y="56" fill="#E99E4B"/><rect width="2" height="14" x="100" y="56" fill="#C5743B"/><rect width="1" height="1" x="61" y="57" fill="#E99E4B"/><rect width="1" height="1" x="63" y="57" fill="#E99E4B"/><rect width="2" height="1" x="70" y="57" fill="#ECA451"/><rect width="2" height="1" x="92" y="57" fill="#F7D4A8"/><rect width="2" height="2" x="30" y="58" fill="#F1C38D"/><rect width="2" height="8" x="40" y="58" fill="#FDEDCF"/><rect width="6" height="2" x="42" y="58" fill="#F2B35F"/><rect width="2" height="2" x="48" y="58" fill="#06041A"/><rect width="4" height="1" x="54" y="58" fill="#F2B35F"/><rect width="10" height="5" x="58" y="58" fill="#F9C16E"/><rect width="4" height="1" x="68" y="58" fill="#F2B35F"/><rect width="4" height="2" x="74" y="58" fill="#06041A"/><rect width="6" height="1" x="78" y="58" fill="#F2B35F"/><rect width="2" height="9" x="84" y="58" fill="#FDEDCF"/><rect width="2" height="16" x="92" y="58" fill="#FDEDCF"/><rect width="1" height="2" x="94" y="58" fill="#F1C38D"/><rect width="1" height="1" x="95" y="58" fill="#F1BE85"/><rect width="1" height="1" x="54" y="59" fill="#F2B35F"/><rect width="1" height="5" x="55" y="59" fill="#F9C16E"/><rect width="2" height="1" x="56" y="59" fill="#F2B35F"/><rect width="1" height="1" x="68" y="59" fill="#F2B35F"/><rect width="1" height="5" x="69" y="59" fill="#F9C16E"/><rect width="2" height="1" x="70" y="59" fill="#F2B35F"/><rect width="1" height="1" x="78" y="59" fill="#F2B35F"/><rect width="1" height="5" x="79" y="59" fill="#F9C16E"/><rect width="4" height="1" x="80" y="59" fill="#F2B35F"/><rect width="1" height="1" x="95" y="59" fill="#F1C38D"/><rect width="2" height="2" x="28" y="60" fill="#E9AE6E"/><rect width="2" height="10" x="30" y="60" fill="#FDEDCF"/><rect width="2" height="7" x="42" y="60" fill="#FDEDCF"/><rect width="2" height="2" x="44" y="60" fill="#F2B35F"/><rect width="9" height="2" x="46" y="60" fill="#F9C16E"/><rect width="2" height="4" x="56" y="60" fill="#F9C16E"/><rect width="1" height="4" x="68" y="60" fill="#F9C16E"/><rect width="9" height="2" x="70" y="60" fill="#F9C16E"/><rect width="2" height="2" x="80" y="60" fill="#F2B35F"/><rect width="2" height="2" x="82" y="60" fill="#F8DCB6"/><rect width="2" height="10" x="94" y="60" fill="#FDEDCF"/><rect width="2" height="2" x="96" y="60" fill="#E9AE6E"/><rect width="2" height="6" x="28" y="62" fill="#FDEDCF"/><rect width="2" height="2" x="44" y="62" fill="#F7E2BE"/><rect width="6" height="2" x="46" y="62" fill="#F9C16E"/><rect width="2" height="14" x="52" y="62" fill="#FCF2D9"/><rect width="1" height="2" x="54" y="62" fill="#F9C16E"/><rect width="2" height="2" x="70" y="62" fill="#F9C16E"/><rect width="2" height="14" x="72" y="62" fill="#FCF2D9"/><rect width="5" height="1" x="74" y="62" fill="#F9C16E"/><rect width="2" height="1" x="80" y="62" fill="#F7E2BE"/><rect width="2" height="6" x="82" y="62" fill="#FDEDCF"/><rect width="2" height="6" x="96" y="62" fill="#FDEDCF"/><rect width="10" height="1" x="58" y="63" fill="#F7D4A8"/><rect width="1" height="1" x="74" y="63" fill="#F8DCB6"/><rect width="4" height="1" x="75" y="63" fill="#F9C16E"/><rect width="2" height="1" x="80" y="63" fill="#FBE7C3"/><rect width="8" height="8" x="44" y="64" fill="#FCF2D9"/><rect width="18" height="2" x="54" y="64" fill="#FCF2D9"/><rect width="8" height="8" x="74" y="64" fill="#FCF2D9"/><rect width="2" height="6" x="40" y="66" fill="#FCF2D9"/><rect width="6" height="2" x="54" y="66" fill="#FCF2D9"/><rect width="6" height="2" x="60" y="66" fill="#242031"/><rect width="6" height="2" x="66" y="66" fill="#FCF2D9"/><rect width="1" height="1" x="42" y="67" fill="#FDEDCF"/><rect width="1" height="5" x="43" y="67" fill="#FCF2D9"/><rect width="2" height="5" x="84" y="67" fill="#FCF2D9"/><rect width="2" height="1" x="28" y="68" fill="#F7D4A8"/><rect width="1" height="4" x="42" y="68" fill="#FCF2D9"/><rect width="4" height="10" x="54" y="68" fill="#FCF2D9"/><rect width="2" height="2" x="58" y="68" fill="#242031"/><rect width="6" height="1" x="60" y="68" fill="#5A5769"/><rect width="2" height="2" x="66" y="68" fill="#242031"/><rect width="4" height="10" x="68" y="68" fill="#FCF2D9"/><rect width="2" height="4" x="82" y="68" fill="#FCF2D9"/><rect width="1" height="1" x="96" y="68" fill="#F8DCB6"/><rect width="1" height="1" x="97" y="68" fill="#F7D4A8"/><rect width="1" height="7" x="28" y="69" fill="#E99E4B"/><rect width="1" height="1" x="29" y="69" fill="#ECA451"/><rect width="6" height="1" x="60" y="69" fill="#242031"/><rect width="2" height="1" x="96" y="69" fill="#ECA451"/><rect width="2" height="6" x="26" y="70" fill="#C5743B"/><rect width="1" height="6" x="29" y="70" fill="#E99E4B"/><rect width="2" height="2" x="30" y="70" fill="#F7E2BE"/><rect width="1" height="4" x="58" y="70" fill="#242031"/><rect width="3" height="3" x="59" y="70" fill="#06041A"/><rect width="2" height="10" x="62" y="70" fill="#242031"/><rect width="3" height="3" x="64" y="70" fill="#06041A"/><rect width="1" height="4" x="67" y="70" fill="#242031"/><rect width="1" height="1" x="94" y="70" fill="#F7E2BE"/><rect width="1" height="2" x="95" y="70" fill="#F8DCB6"/><rect width="2" height="6" x="96" y="70" fill="#E99E4B"/><rect width="2" height="6" x="98" y="70" fill="#C5743B"/><rect width="1" height="1" x="94" y="71" fill="#F8DCB6"/><rect width="2" height="6" x="30" y="72" fill="#E99E4B"/><rect width="6" height="8" x="40" y="72" fill="#FDEDCF"/><rect width="6" height="2" x="46" y="72" fill="#FCF2D9"/><rect width="6" height="2" x="74" y="72" fill="#FCF2D9"/><rect width="6" height="8" x="80" y="72" fill="#FDEDCF"/><rect width="2" height="6" x="94" y="72" fill="#E99E4B"/><rect width="3" height="1" x="59" y="73" fill="#242031"/><rect width="3" height="1" x="64" y="73" fill="#242031"/><rect width="2" height="28" x="32" y="74" fill="#E99E4B"/><rect width="6" height="2" x="34" y="74" fill="#FDEDCF"/><rect width="2" height="2" x="46" y="74" fill="#FBE7C3"/><rect width="4" height="2" x="48" y="74" fill="#FCF2D9"/><rect width="2" height="4" x="58" y="74" fill="#FCF2D9"/><rect width="2" height="2" x="60" y="74" fill="#242031"/><rect width="2" height="2" x="64" y="74" fill="#242031"/><rect width="2" height="4" x="66" y="74" fill="#FCF2D9"/><rect width="4" height="2" x="74" y="74" fill="#FCF2D9"/><rect width="2" height="22" x="78" y="74" fill="#FDEDCF"/><rect width="2" height="1" x="92" y="74" fill="#ECA451"/><rect width="2" height="29" x="92" y="75" fill="#E99E4B"/><rect width="2" height="2" x="28" y="76" fill="#C5743B"/><rect width="2" height="3" x="34" y="76" fill="#E99E4B"/><rect width="4" height="2" x="36" y="76" fill="#FDEDCF"/><rect width="2" height="10" x="46" y="76" fill="#FDEDCF"/><rect width="2" height="2" x="48" y="76" fill="#F7E2BE"/><rect width="2" height="1" x="50" y="76" fill="#FCF2D9"/><rect width="2" height="2" x="52" y="76" fill="#242031"/><rect width="2" height="2" x="60" y="76" fill="#FCF2D9"/><rect width="2" height="2" x="64" y="76" fill="#FCF2D9"/><rect width="2" height="2" x="72" y="76" fill="#242031"/><rect width="2" height="1" x="74" y="76" fill="#FCF2D9"/><rect width="2" height="2" x="76" y="76" fill="#F7E2BE"/><rect width="4" height="2" x="86" y="76" fill="#FDEDCF"/><rect width="2" height="3" x="90" y="76" fill="#E99E4B"/><rect width="2" height="2" x="96" y="76" fill="#C5743B"/><rect width="2" height="1" x="50" y="77" fill="#FDEDCF"/><rect width="2" height="1" x="74" y="77" fill="#FDEDCF"/><rect width="2" height="8" x="30" y="78" fill="#C5743B"/><rect width="1" height="1" x="36" y="78" fill="#E99E4B"/><rect width="1" height="2" x="37" y="78" fill="#ECA451"/><rect width="2" height="2" x="38" y="78" fill="#F1C38D"/><rect width="2" height="18" x="48" y="78" fill="#FDEDCF"/><rect width="2" height="6" x="50" y="78" fill="#F7E2BE"/><rect width="2" height="1" x="52" y="78" fill="#F8DCB6"/><rect width="8" height="2" x="54" y="78" fill="#242031"/><rect width="8" height="2" x="64" y="78" fill="#242031"/><rect width="1" height="1" x="72" y="78" fill="#F8DCB6"/><rect width="3" height="6" x="73" y="78" fill="#F7E2BE"/><rect width="2" height="18" x="76" y="78" fill="#FDEDCF"/><rect width="1" height="1" x="86" y="78" fill="#F5C894"/><rect width="1" height="2" x="87" y="78" fill="#F1C38D"/><rect width="2" height="2" x="88" y="78" fill="#ECA451"/><rect width="2" height="12" x="94" y="78" fill="#C5743B"/><rect width="1" height="25" x="34" y="79" fill="#E99E4B"/><rect width="2" height="1" x="35" y="79" fill="#ECA451"/><rect width="2" height="5" x="52" y="79" fill="#F7E2BE"/><rect width="1" height="5" x="72" y="79" fill="#F7E2BE"/><rect width="1" height="1" x="86" y="79" fill="#F1C38D"/><rect width="1" height="12" x="90" y="79" fill="#E99E4B"/><rect width="1" height="1" x="91" y="79" fill="#ECA451"/><rect width="5" height="1" x="35" y="80" fill="#E99E4B"/><rect width="2" height="2" x="40" y="80" fill="#F1BE85"/><rect width="4" height="2" x="42" y="80" fill="#FDEDCF"/><rect width="1" height="1" x="54" y="80" fill="#F8DCB6"/><rect width="1" height="2" x="55" y="80" fill="#F7E2BE"/><rect width="14" height="2" x="56" y="80" fill="#FCF2D9"/><rect width="2" height="4" x="70" y="80" fill="#F7E2BE"/><rect width="4" height="2" x="80" y="80" fill="#FDEDCF"/><rect width="1" height="2" x="84" y="80" fill="#F1C38D"/><rect width="1" height="1" x="85" y="80" fill="#F1BE85"/><rect width="2" height="3" x="86" y="80" fill="#ECA451"/><rect width="2" height="5" x="88" y="80" fill="#E99E4B"/><rect width="1" height="26" x="91" y="80" fill="#E99E4B"/><rect width="4" height="4" x="35" y="81" fill="#E99E4B"/><rect width="1" height="2" x="39" y="81" fill="#ECA451"/><rect width="1" height="3" x="54" y="81" fill="#F7E2BE"/><rect width="1" height="1" x="85" y="81" fill="#F1C38D"/><rect width="2" height="2" x="40" y="82" fill="#E99E4B"/><rect width="2" height="10" x="42" y="82" fill="#F5C894"/><rect width="2" height="2" x="44" y="82" fill="#FDEDCF"/><rect width="1" height="1" x="55" y="82" fill="#F8DCB6"/><rect width="2" height="2" x="56" y="82" fill="#E4CAA8"/><rect width="10" height="2" x="58" y="82" fill="#FCF2D9"/><rect width="2" height="2" x="68" y="82" fill="#E4CAA8"/><rect width="2" height="4" x="80" y="82" fill="#FDEDCF"/><rect width="2" height="6" x="82" y="82" fill="#F6CD9C"/><rect width="2" height="6" x="84" y="82" fill="#ECA451"/><rect width="1" height="2" x="39" y="83" fill="#E99E4B"/><rect width="1" height="1" x="55" y="83" fill="#F7E2BE"/><rect width="1" height="1" x="86" y="83" fill="#E99E4B"/><rect width="1" height="5" x="87" y="83" fill="#ECA451"/><rect width="1" height="4" x="40" y="84" fill="#E99E4B"/><rect width="1" height="2" x="41" y="84" fill="#ECA451"/><rect width="2" height="2" x="44" y="84" fill="#F7E2BE"/><rect width="6" height="12" x="50" y="84" fill="#FDEDCF"/><rect width="1" height="2" x="56" y="84" fill="#FBE7C3"/><rect width="1" height="1" x="57" y="84" fill="#F7E2BE"/><rect width="2" height="2" x="58" y="84" fill="#E4CAA8"/><rect width="8" height="2" x="60" y="84" fill="#E0C4A2"/><rect width="1" height="1" x="68" y="84" fill="#F7E2BE"/><rect width="1" height="2" x="69" y="84" fill="#FBE7C3"/><rect width="6" height="8" x="70" y="84" fill="#FDEDCF"/><rect width="1" height="4" x="86" y="84" fill="#ECA451"/><rect width="3" height="4" x="35" y="85" fill="#E99E4B"/><rect width="2" height="1" x="38" y="85" fill="#ECA451"/><rect width="1" height="1" x="57" y="85" fill="#FBE7C3"/><rect width="1" height="1" x="68" y="85" fill="#FBE7C3"/><rect width="1" height="3" x="88" y="85" fill="#ECA451"/><rect width="1" height="23" x="89" y="85" fill="#E99E4B"/><rect width="2" height="10" x="28" y="86" fill="#C5743B"/><rect width="2" height="10" x="30" y="86" fill="#E99E4B"/><rect width="2" height="1" x="38" y="86" fill="#E99E4B"/><rect width="1" height="1" x="41" y="86" fill="#E99E4B"/><rect width="2" height="2" x="44" y="86" fill="#F8DCB6"/><rect width="1" height="2" x="46" y="86" fill="#FBE7C3"/><rect width="1" height="8" x="47" y="86" fill="#FDEDCF"/><rect width="14" height="6" x="56" y="86" fill="#FDEDCF"/><rect width="2" height="2" x="80" y="86" fill="#FBE7C3"/><rect width="1" height="1" x="38" y="87" fill="#E99E4B"/><rect width="1" height="4" x="39" y="87" fill="#ECA451"/><rect width="1" height="3" x="41" y="87" fill="#ECA451"/><rect width="1" height="2" x="38" y="88" fill="#ECA451"/><rect width="1" height="2" x="40" y="88" fill="#ECA451"/><rect width="1" height="1" x="44" y="88" fill="#F8DCB6"/><rect width="1" height="1" x="45" y="88" fill="#F7E2BE"/><rect width="1" height="6" x="46" y="88" fill="#FDEDCF"/><rect width="2" height="6" x="80" y="88" fill="#FDEDCF"/><rect width="1" height="2" x="82" y="88" fill="#F8DCB6"/><rect width="1" height="2" x="83" y="88" fill="#F7D4A8"/><rect width="1" height="1" x="84" y="88" fill="#ECA451"/><rect width="4" height="1" x="85" y="88" fill="#E99E4B"/><rect width="2" height="15" x="35" y="89" fill="#E99E4B"/><rect width="1" height="1" x="37" y="89" fill="#ECA451"/><rect width="2" height="5" x="44" y="89" fill="#FDEDCF"/><rect width="2" height="5" x="84" y="89" fill="#E99E4B"/><rect width="2" height="1" x="86" y="89" fill="#ECA451"/><rect width="1" height="10" x="88" y="89" fill="#E99E4B"/><rect width="2" height="4" x="37" y="90" fill="#E99E4B"/><rect width="2" height="3" x="40" y="90" fill="#E99E4B"/><rect width="1" height="1" x="82" y="90" fill="#F6CD9C"/><rect width="1" height="2" x="83" y="90" fill="#F5C894"/><rect width="1" height="3" x="86" y="90" fill="#E99E4B"/><rect width="1" height="2" x="87" y="90" fill="#ECA451"/><rect width="2" height="10" x="94" y="90" fill="#E99E4B"/><rect width="2" height="10" x="96" y="90" fill="#C5743B"/><rect width="1" height="3" x="39" y="91" fill="#E99E4B"/><rect width="1" height="1" x="82" y="91" fill="#F5C894"/><rect width="1" height="1" x="90" y="91" fill="#ECA451"/><rect width="2" height="3" x="42" y="92" fill="#E99E4B"/><rect width="16" height="8" x="56" y="92" fill="#FCF2D9"/><rect width="4" height="22" x="72" y="92" fill="#FDEDCF"/><rect width="1" height="6" x="82" y="92" fill="#E99E4B"/><rect width="1" height="1" x="83" y="92" fill="#ECA451"/><rect width="1" height="3" x="87" y="92" fill="#E99E4B"/><rect width="1" height="14" x="90" y="92" fill="#E99E4B"/><rect width="1" height="17" x="40" y="93" fill="#E99E4B"/><rect width="1" height="3" x="41" y="93" fill="#ECA451"/><rect width="1" height="3" x="83" y="93" fill="#E99E4B"/><rect width="1" height="1" x="86" y="93" fill="#ECA451"/><rect width="3" height="2" x="37" y="94" fill="#ECA451"/><rect width="2" height="5" x="44" y="94" fill="#E99E4B"/><rect width="2" height="2" x="46" y="94" fill="#F1BE85"/><rect width="2" height="1" x="80" y="94" fill="#ECA451"/><rect width="1" height="3" x="84" y="94" fill="#E99E4B"/><rect width="1" height="4" x="85" y="94" fill="#ECA451"/><rect width="1" height="4" x="86" y="94" fill="#E99E4B"/><rect width="1" height="3" x="42" y="95" fill="#E99E4B"/><rect width="1" height="1" x="43" y="95" fill="#ECA451"/><rect width="1" height="1" x="80" y="95" fill="#E99E4B"/><rect width="1" height="5" x="81" y="95" fill="#ECA451"/><rect width="1" height="1" x="87" y="95" fill="#ECA451"/><rect width="2" height="6" x="30" y="96" fill="#C5743B"/><rect width="3" height="1" x="37" y="96" fill="#E99E4B"/><rect width="1" height="1" x="41" y="96" fill="#E99E4B"/><rect width="1" height="1" x="43" y="96" fill="#E99E4B"/><rect width="2" height="4" x="46" y="96" fill="#E99E4B"/><rect width="2" height="2" x="48" y="96" fill="#F1BE85"/><rect width="2" height="2" x="50" y="96" fill="#FBE7C3"/><rect width="4" height="18" x="52" y="96" fill="#FDEDCF"/><rect width="1" height="4" x="76" y="96" fill="#F7E2BE"/><rect width="1" height="2" x="77" y="96" fill="#F8DCB6"/><rect width="3" height="2" x="78" y="96" fill="#ECA451"/><rect width="1" height="4" x="83" y="96" fill="#ECA451"/><rect width="1" height="1" x="87" y="96" fill="#E99E4B"/><rect width="1" height="1" x="37" y="97" fill="#ECA451"/><rect width="2" height="1" x="38" y="97" fill="#E99E4B"/><rect width="1" height="1" x="41" y="97" fill="#ECA451"/><rect width="1" height="3" x="43" y="97" fill="#ECA451"/><rect width="1" height="1" x="84" y="97" fill="#ECA451"/><rect width="1" height="5" x="87" y="97" fill="#ECA451"/><rect width="2" height="10" x="37" y="98" fill="#E99E4B"/><rect width="1" height="1" x="39" y="98" fill="#ECA451"/><rect width="1" height="1" x="41" y="98" fill="#E99E4B"/><rect width="1" height="2" x="42" y="98" fill="#ECA451"/><rect width="2" height="2" x="48" y="98" fill="#F6CD9C"/><rect width="2" height="14" x="50" y="98" fill="#FDEDCF"/><rect width="1" height="2" x="77" y="98" fill="#F7E2BE"/><rect width="2" height="1" x="78" y="98" fill="#F1C38D"/><rect width="1" height="2" x="80" y="98" fill="#ECA451"/><rect width="1" height="2" x="82" y="98" fill="#ECA451"/><rect width="2" height="1" x="84" y="98" fill="#F6CD9C"/><rect width="1" height="4" x="86" y="98" fill="#ECA451"/><rect width="1" height="11" x="39" y="99" fill="#E99E4B"/><rect width="1" height="3" x="41" y="99" fill="#ECA451"/><rect width="1" height="1" x="44" y="99" fill="#E99E4B"/><rect width="1" height="1" x="45" y="99" fill="#ECA451"/><rect width="2" height="1" x="78" y="99" fill="#F5C894"/><rect width="1" height="1" x="84" y="99" fill="#F6CD9C"/><rect width="1" height="5" x="85" y="99" fill="#F7D4A8"/><rect width="1" height="1" x="88" y="99" fill="#ECA451"/><rect width="1" height="1" x="42" y="100" fill="#F7E2BE"/><rect width="1" height="4" x="43" y="100" fill="#FBE7C3"/><rect width="6" height="4" x="44" y="100" fill="#FDEDCF"/><rect width="2" height="16" x="56" y="100" fill="#FDEDCF"/><rect width="12" height="4" x="58" y="100" fill="#FCF2D9"/><rect width="2" height="16" x="70" y="100" fill="#FDEDCF"/><rect width="7" height="4" x="76" y="100" fill="#FDEDCF"/><rect width="1" height="1" x="83" y="100" fill="#FBE7C3"/><rect width="1" height="4" x="84" y="100" fill="#F7D4A8"/><rect width="1" height="8" x="88" y="100" fill="#E99E4B"/><rect width="2" height="4" x="94" y="100" fill="#CD9974"/><rect width="1" height="3" x="42" y="101" fill="#FBE7C3"/><rect width="1" height="3" x="83" y="101" fill="#FDEDCF"/><rect width="2" height="2" x="32" y="102" fill="#CD9974"/><rect width="1" height="8" x="41" y="102" fill="#E99E4B"/><rect width="2" height="8" x="86" y="102" fill="#E99E4B"/><rect width="2" height="4" x="34" y="104" fill="#CD9974"/><rect width="1" height="4" x="36" y="104" fill="#E99E4B"/><rect width="2" height="8" x="42" y="104" fill="#E99E4B"/><rect width="2" height="2" x="44" y="104" fill="#F7E2BE"/><rect width="4" height="4" x="46" y="104" fill="#FDEDCF"/><rect width="2" height="12" x="58" y="104" fill="#FDEDCF"/><rect width="8" height="4" x="60" y="104" fill="#FCF2D9"/><rect width="2" height="12" x="68" y="104" fill="#FDEDCF"/><rect width="6" height="4" x="76" y="104" fill="#FDEDCF"/><rect width="1" height="2" x="82" y="104" fill="#FBE7C3"/><rect width="1" height="2" x="83" y="104" fill="#F7E2BE"/><rect width="2" height="6" x="84" y="104" fill="#E99E4B"/><rect width="2" height="2" x="92" y="104" fill="#CD9974"/><rect width="2" height="8" x="44" y="106" fill="#E99E4B"/><rect width="1" height="1" x="82" y="106" fill="#ECA451"/><rect width="1" height="6" x="83" y="106" fill="#E99E4B"/><rect width="2" height="2" x="90" y="106" fill="#CD9974"/><rect width="1" height="5" x="82" y="107" fill="#E99E4B"/><rect width="2" height="2" x="36" y="108" fill="#CD9974"/><rect width="1" height="2" x="38" y="108" fill="#E99E4B"/><rect width="2" height="6" x="46" y="108" fill="#E99E4B"/><rect width="2" height="4" x="48" y="108" fill="#FDEDCF"/><rect width="8" height="8" x="60" y="108" fill="#FDEDCF"/><rect width="4" height="4" x="76" y="108" fill="#FDEDCF"/><rect width="2" height="6" x="80" y="108" fill="#E99E4B"/><rect width="2" height="2" x="88" y="108" fill="#CD9974"/><rect width="4" height="2" x="38" y="110" fill="#CD9974"/><rect width="4" height="2" x="84" y="110" fill="#CD9974"/><rect width="2" height="2" x="42" y="112" fill="#CD9974"/><rect width="2" height="2" x="48" y="112" fill="#E99E4B"/><rect width="2" height="2" x="50" y="112" fill="#FBE7C3"/><rect width="2" height="2" x="76" y="112" fill="#FDEDCF"/><rect width="2" height="2" x="78" y="112" fill="#E99E4B"/><rect width="2" height="2" x="82" y="112" fill="#CD9974"/><rect width="6" height="2" x="44" y="114" fill="#CD9974"/><rect width="2" height="2" x="50" y="114" fill="#D1A984"/><rect width="2" height="2" x="52" y="114" fill="#FBE7C3"/><rect width="2" height="2" x="54" y="114" fill="#FDEDCF"/><rect width="3" height="2" x="72" y="114" fill="#FDEDCF"/><rect width="1" height="1" x="75" y="114" fill="#FBE7C3"/><rect width="6" height="1" x="76" y="114" fill="#D1A984"/><rect width="1" height="1" x="75" y="115" fill="#FDEDCF"/><rect width="1" height="3" x="76" y="115" fill="#D2B08D"/><rect width="5" height="1" x="77" y="115" fill="#D1A984"/><rect width="1" height="2" x="50" y="116" fill="#D1A984"/><rect width="25" height="2" x="51" y="116" fill="#D2B08D"/><rect width="1" height="1" x="77" y="116" fill="#D1A984"/><rect width="1" height="1" x="77" y="117" fill="#D2B08D"/><rect width="24" height="1" x="52" y="118" fill="#D2B08D"/></svg>