<?xml version="1.0" encoding="UTF-8" ?>
<svg version="1.1" width="128" height="128" xmlns="http://www.w3.org/2000/svg" shape-rendering="crispEdges">
<rect x="36" y="10" width="6" height="2" fill="#9C572B" />
<rect x="84" y="10" width="6" height="2" fill="#9C572B" />
<rect x="34" y="12" width="2" height="4" fill="#9C572B" />
<rect x="36" y="12" width="6" height="2" fill="#C5743B" />
<rect x="42" y="12" width="2" height="2" fill="#9C572B" />
<rect x="82" y="12" width="2" height="2" fill="#9C572B" />
<rect x="84" y="12" width="6" height="2" fill="#C5743B" />
<rect x="90" y="12" width="2" height="4" fill="#9C572B" />
<rect x="36" y="14" width="6" height="4" fill="#D78147" />
<rect x="42" y="14" width="2" height="4" fill="#C5743B" />
<rect x="44" y="14" width="2" height="2" fill="#9C572B" />
<rect x="80" y="14" width="2" height="2" fill="#9C572B" />
<rect x="82" y="14" width="2" height="4" fill="#C5743B" />
<rect x="84" y="14" width="6" height="4" fill="#D78147" />
<rect x="34" y="16" width="2" height="8" fill="#D78147" />
<rect x="44" y="16" width="2" height="2" fill="#C5743B" />
<rect x="46" y="16" width="2" height="2" fill="#9C572B" />
<rect x="78" y="16" width="2" height="2" fill="#9C572B" />
<rect x="80" y="16" width="2" height="2" fill="#C5743B" />
<rect x="90" y="16" width="2" height="8" fill="#D78147" />
<rect x="92" y="16" width="2" height="10" fill="#9C572B" />
<rect x="32" y="18" width="2" height="8" fill="#9C572B" />
<rect x="36" y="18" width="5" height="4" fill="#F8DCB6" />
<rect x="41" y="18" width="1" height="1" fill="#F7D4A8" />
<rect x="42" y="18" width="4" height="2" fill="#D78147" />
<rect x="46" y="18" width="2" height="4" fill="#C5743B" />
<rect x="48" y="18" width="2" height="2" fill="#9C572B" />
<rect x="76" y="18" width="2" height="2" fill="#9C572B" />
<rect x="78" y="18" width="2" height="4" fill="#C5743B" />
<rect x="80" y="18" width="4" height="2" fill="#D78147" />
<rect x="84" y="18" width="6" height="4" fill="#F8DCB6" />
<rect x="41" y="19" width="1" height="3" fill="#F8DCB6" />
<rect x="42" y="20" width="1" height="2" fill="#F8DCB6" />
<rect x="43" y="20" width="1" height="1" fill="#F7D4A8" />
<rect x="44" y="20" width="2" height="4" fill="#D78147" />
<rect x="48" y="20" width="2" height="12" fill="#C5743B" />
<rect x="50" y="20" width="2" height="2" fill="#9C572B" />
<rect x="74" y="20" width="2" height="2" fill="#9C572B" />
<rect x="76" y="20" width="2" height="12" fill="#C5743B" />
<rect x="80" y="20" width="2" height="4" fill="#D78147" />
<rect x="82" y="20" width="2" height="2" fill="#F8DCB6" />
<rect x="43" y="21" width="1" height="1" fill="#F8DCB6" />
<rect x="36" y="22" width="4" height="6" fill="#F8DCB6" />
<rect x="40" y="22" width="2" height="4" fill="#FCF2D9" />
<rect x="42" y="22" width="2" height="2" fill="#FDEDCF" />
<rect x="46" y="22" width="2" height="4" fill="#D78147" />
<rect x="50" y="22" width="2" height="8" fill="#C5743B" />
<rect x="52" y="22" width="22" height="2" fill="#9C572B" />
<rect x="74" y="22" width="2" height="8" fill="#C5743B" />
<rect x="78" y="22" width="2" height="4" fill="#D78147" />
<rect x="82" y="22" width="1" height="1" fill="#FDEDCF" />
<rect x="83" y="22" width="3" height="4" fill="#FCF2D9" />
<rect x="86" y="22" width="4" height="6" fill="#F8DCB6" />
<rect x="82" y="23" width="1" height="5" fill="#FCF2D9" />
<rect x="34" y="24" width="2" height="14" fill="#F8DCB6" />
<rect x="42" y="24" width="4" height="4" fill="#FCF2D9" />
<rect x="52" y="24" width="4" height="2" fill="#C5743B" />
<rect x="56" y="24" width="1" height="34" fill="#E99E4B" />
<rect x="57" y="24" width="1" height="1" fill="#ECA451" />
<rect x="58" y="24" width="12" height="3" fill="#E99E4B" />
<rect x="70" y="24" width="4" height="2" fill="#C5743B" />
<rect x="80" y="24" width="2" height="4" fill="#FCF2D9" />
<rect x="90" y="24" width="2" height="16" fill="#F8DCB6" />
<rect x="94" y="24" width="2" height="22" fill="#9C572B" />
<rect x="57" y="25" width="1" height="8" fill="#E99E4B" />
<rect x="30" y="26" width="2" height="20" fill="#9C572B" />
<rect x="32" y="26" width="2" height="2" fill="#C5743B" />
<rect x="40" y="26" width="2" height="2" fill="#F8DCB6" />
<rect x="46" y="26" width="2" height="6" fill="#F8DCB6" />
<rect x="52" y="26" width="2" height="2" fill="#C5743B" />
<rect x="54" y="26" width="2" height="4" fill="#DB9143" />
<rect x="70" y="26" width="2" height="4" fill="#DB9143" />
<rect x="72" y="26" width="2" height="2" fill="#C5743B" />
<rect x="78" y="26" width="2" height="6" fill="#F8DCB6" />
<rect x="83" y="26" width="1" height="2" fill="#FCF2D9" />
<rect x="84" y="26" width="2" height="2" fill="#F8DCB6" />
<rect x="92" y="26" width="2" height="2" fill="#C5743B" />
<rect x="58" y="27" width="5" height="2" fill="#E99E4B" />
<rect x="63" y="27" width="1" height="1" fill="#ECA451" />
<rect x="64" y="27" width="6" height="22" fill="#E99E4B" />
<rect x="32" y="28" width="2" height="12" fill="#D78147" />
<rect x="36" y="28" width="2" height="10" fill="#F8DCB6" />
<rect x="38" y="28" width="4" height="8" fill="#C29D7D" />
<rect x="42" y="28" width="4" height="2" fill="#F8DCB6" />
<rect x="52" y="28" width="2" height="2" fill="#DB9143" />
<rect x="63" y="28" width="1" height="1" fill="#E99E4B" />
<rect x="72" y="28" width="2" height="2" fill="#DB9143" />
<rect x="80" y="28" width="4" height="2" fill="#F8DCB6" />
<rect x="84" y="28" width="4" height="8" fill="#C29D7D" />
<rect x="88" y="28" width="2" height="10" fill="#F8DCB6" />
<rect x="92" y="28" width="2" height="12" fill="#D78147" />
<rect x="58" y="29" width="3" height="27" fill="#E99E4B" />
<rect x="61" y="29" width="1" height="1" fill="#ECA451" />
<rect x="62" y="29" width="1" height="29" fill="#E99E4B" />
<rect x="63" y="29" width="1" height="1" fill="#ECA451" />
<rect x="42" y="30" width="2" height="4" fill="#D2B08D" />
<rect x="44" y="30" width="2" height="2" fill="#F8DCB6" />
<rect x="50" y="30" width="6" height="3" fill="#E99E4B" />
<rect x="61" y="30" width="1" height="3" fill="#E99E4B" />
<rect x="63" y="30" width="1" height="15" fill="#E99E4B" />
<rect x="70" y="30" width="6" height="1" fill="#E99E4B" />
<rect x="80" y="30" width="2" height="2" fill="#F8DCB6" />
<rect x="82" y="30" width="2" height="4" fill="#D2B08D" />
<rect x="70" y="31" width="5" height="2" fill="#E99E4B" />
<rect x="75" y="31" width="1" height="1" fill="#ECA451" />
<rect x="44" y="32" width="1" height="22" fill="#E99E4B" />
<rect x="45" y="32" width="3" height="1" fill="#ECA451" />
<rect x="48" y="32" width="2" height="1" fill="#E99E4B" />
<rect x="75" y="32" width="3" height="1" fill="#E99E4B" />
<rect x="78" y="32" width="2" height="1" fill="#ECA451" />
<rect x="80" y="32" width="1" height="22" fill="#E99E4B" />
<rect x="81" y="32" width="1" height="2" fill="#ECA451" />
<rect x="45" y="33" width="1" height="5" fill="#ECA451" />
<rect x="46" y="33" width="1" height="21" fill="#E99E4B" />
<rect x="47" y="33" width="2" height="1" fill="#ECA451" />
<rect x="49" y="33" width="6" height="9" fill="#E99E4B" />
<rect x="55" y="33" width="1" height="1" fill="#ECA451" />
<rect x="57" y="33" width="1" height="1" fill="#ECA451" />
<rect x="61" y="33" width="1" height="1" fill="#ECA451" />
<rect x="70" y="33" width="1" height="13" fill="#E99E4B" />
<rect x="71" y="33" width="1" height="1" fill="#ECA451" />
<rect x="72" y="33" width="5" height="3" fill="#E99E4B" />
<rect x="77" y="33" width="1" height="1" fill="#ECA451" />
<rect x="78" y="33" width="1" height="21" fill="#E99E4B" />
<rect x="79" y="33" width="1" height="1" fill="#ECA451" />
<rect x="42" y="34" width="2" height="21" fill="#E99E4B" />
<rect x="47" y="34" width="2" height="18" fill="#E99E4B" />
<rect x="55" y="34" width="1" height="11" fill="#E99E4B" />
<rect x="57" y="34" width="1" height="13" fill="#E99E4B" />
<rect x="61" y="34" width="1" height="7" fill="#E99E4B" />
<rect x="71" y="34" width="1" height="11" fill="#E99E4B" />
<rect x="77" y="34" width="1" height="6" fill="#E99E4B" />
<rect x="79" y="34" width="1" height="20" fill="#E99E4B" />
<rect x="81" y="34" width="3" height="6" fill="#E99E4B" />
<rect x="38" y="36" width="2" height="2" fill="#C29D7D" />
<rect x="40" y="36" width="2" height="7" fill="#E99E4B" />
<rect x="72" y="36" width="3" height="5" fill="#E99E4B" />
<rect x="75" y="36" width="1" height="1" fill="#ECA451" />
<rect x="76" y="36" width="1" height="1" fill="#E99E4B" />
<rect x="84" y="36" width="2" height="5" fill="#E99E4B" />
<rect x="86" y="36" width="2" height="2" fill="#C29D7D" />
<rect x="75" y="37" width="1" height="5" fill="#E99E4B" />
<rect x="76" y="37" width="1" height="1" fill="#ECA451" />
<rect x="34" y="38" width="1" height="1" fill="#F8DCB6" />
<rect x="35" y="38" width="1" height="1" fill="#F7D4A8" />
<rect x="36" y="38" width="1" height="1" fill="#ECA451" />
<rect x="37" y="38" width="3" height="1" fill="#E99E4B" />
<rect x="45" y="38" width="1" height="3" fill="#E99E4B" />
<rect x="76" y="38" width="1" height="6" fill="#E99E4B" />
<rect x="86" y="38" width="4" height="1" fill="#E99E4B" />
<rect x="34" y="39" width="1" height="1" fill="#F7D4A8" />
<rect x="35" y="39" width="1" height="1" fill="#F8DCB6" />
<rect x="36" y="39" width="1" height="15" fill="#E99E4B" />
<rect x="37" y="39" width="2" height="1" fill="#ECA451" />
<rect x="39" y="39" width="1" height="4" fill="#E99E4B" />
<rect x="86" y="39" width="3" height="5" fill="#E99E4B" />
<rect x="89" y="39" width="1" height="1" fill="#ECA451" />
<rect x="32" y="40" width="4" height="11" fill="#E99E4B" />
<rect x="37" y="40" width="1" height="1" fill="#ECA451" />
<rect x="38" y="40" width="1" height="1" fill="#E99E4B" />
<rect x="77" y="40" width="1" height="2" fill="#ECA451" />
<rect x="81" y="40" width="1" height="2" fill="#ECA451" />
<rect x="82" y="40" width="2" height="16" fill="#E99E4B" />
<rect x="89" y="40" width="5" height="8" fill="#E99E4B" />
<rect x="37" y="41" width="1" height="4" fill="#E99E4B" />
<rect x="38" y="41" width="1" height="1" fill="#ECA451" />
<rect x="45" y="41" width="1" height="1" fill="#ECA451" />
<rect x="61" y="41" width="1" height="1" fill="#ECA451" />
<rect x="72" y="41" width="1" height="3" fill="#E99E4B" />
<rect x="73" y="41" width="1" height="1" fill="#ECA451" />
<rect x="74" y="41" width="1" height="3" fill="#E99E4B" />
<rect x="84" y="41" width="1" height="1" fill="#ECA451" />
<rect x="85" y="41" width="1" height="12" fill="#E99E4B" />
<rect x="38" y="42" width="1" height="13" fill="#E99E4B" />
<rect x="45" y="42" width="1" height="12" fill="#E99E4B" />
<rect x="49" y="42" width="2" height="2" fill="#E99E4B" />
<rect x="51" y="42" width="1" height="2" fill="#ECA451" />
<rect x="52" y="42" width="1" height="1" fill="#E99E4B" />
<rect x="53" y="42" width="1" height="2" fill="#ECA451" />
<rect x="54" y="42" width="1" height="2" fill="#E99E4B" />
<rect x="61" y="42" width="1" height="14" fill="#E99E4B" />
<rect x="73" y="42" width="1" height="1" fill="#E99E4B" />
<rect x="75" y="42" width="1" height="2" fill="#ECA451" />
<rect x="77" y="42" width="1" height="8" fill="#E99E4B" />
<rect x="81" y="42" width="1" height="12" fill="#E99E4B" />
<rect x="84" y="42" width="1" height="13" fill="#E99E4B" />
<rect x="39" y="43" width="2" height="1" fill="#ECA451" />
<rect x="41" y="43" width="1" height="1" fill="#E99E4B" />
<rect x="52" y="43" width="1" height="1" fill="#ECA451" />
<rect x="73" y="43" width="1" height="1" fill="#ECA451" />
<rect x="39" y="44" width="2" height="10" fill="#E99E4B" />
<rect x="41" y="44" width="1" height="1" fill="#ECA451" />
<rect x="49" y="44" width="1" height="8" fill="#E99E4B" />
<rect x="50" y="44" width="4" height="1" fill="#FDEDCF" />
<rect x="54" y="44" width="1" height="1" fill="#ECA451" />
<rect x="72" y="44" width="1" height="1" fill="#FDEDCF" />
<rect x="73" y="44" width="1" height="6" fill="#FCF2D9" />
<rect x="74" y="44" width="2" height="6" fill="#FDEDCF" />
<rect x="76" y="44" width="1" height="1" fill="#ECA451" />
<rect x="86" y="44" width="2" height="1" fill="#E99E4B" />
<rect x="88" y="44" width="1" height="1" fill="#ECA451" />
<rect x="37" y="45" width="1" height="1" fill="#ECA451" />
<rect x="41" y="45" width="1" height="10" fill="#E99E4B" />
<rect x="50" y="45" width="2" height="3" fill="#FDEDCF" />
<rect x="52" y="45" width="2" height="5" fill="#FCF2D9" />
<rect x="54" y="45" width="1" height="1" fill="#E99E4B" />
<rect x="55" y="45" width="1" height="1" fill="#ECA451" />
<rect x="63" y="45" width="1" height="1" fill="#ECA451" />
<rect x="71" y="45" width="1" height="1" fill="#ECA451" />
<rect x="72" y="45" width="1" height="5" fill="#FCF2D9" />
<rect x="76" y="45" width="1" height="5" fill="#E99E4B" />
<rect x="86" y="45" width="1" height="1" fill="#E99E4B" />
<rect x="87" y="45" width="1" height="1" fill="#ECA451" />
<rect x="88" y="45" width="1" height="10" fill="#E99E4B" />
<rect x="28" y="46" width="2" height="4" fill="#C5743B" />
<rect x="30" y="46" width="2" height="12" fill="#E99E4B" />
<rect x="37" y="46" width="1" height="8" fill="#E99E4B" />
<rect x="54" y="46" width="1" height="1" fill="#FBE7C3" />
<rect x="55" y="46" width="1" height="5" fill="#FDEDCF" />
<rect x="63" y="46" width="1" height="10" fill="#E99E4B" />
<rect x="70" y="46" width="2" height="1" fill="#FBE7C3" />
<rect x="86" y="46" width="1" height="1" fill="#ECA451" />
<rect x="87" y="46" width="1" height="8" fill="#E99E4B" />
<rect x="94" y="46" width="2" height="12" fill="#E99E4B" />
<rect x="96" y="46" width="2" height="4" fill="#C5743B" />
<rect x="54" y="47" width="1" height="5" fill="#FDEDCF" />
<rect x="57" y="47" width="1" height="1" fill="#ECA451" />
<rect x="70" y="47" width="2" height="4" fill="#FDEDCF" />
<rect x="86" y="47" width="1" height="8" fill="#E99E4B" />
<rect x="50" y="48" width="1" height="2" fill="#FDEDCF" />
<rect x="51" y="48" width="1" height="1" fill="#FCF2D9" />
<rect x="57" y="48" width="1" height="1" fill="#E99E4B" />
<rect x="89" y="48" width="1" height="1" fill="#ECA451" />
<rect x="90" y="48" width="4" height="5" fill="#E99E4B" />
<rect x="51" y="49" width="1" height="1" fill="#FDEDCF" />
<rect x="57" y="49" width="1" height="1" fill="#ECA451" />
<rect x="64" y="49" width="5" height="6" fill="#E99E4B" />
<rect x="69" y="49" width="1" height="1" fill="#ECA451" />
<rect x="89" y="49" width="1" height="5" fill="#E99E4B" />
<rect x="26" y="50" width="2" height="6" fill="#C5743B" />
<rect x="28" y="50" width="2" height="10" fill="#E99E4B" />
<rect x="50" y="50" width="2" height="2" fill="#E99E4B" />
<rect x="52" y="50" width="2" height="2" fill="#FBE7C3" />
<rect x="57" y="50" width="1" height="6" fill="#E99E4B" />
<rect x="69" y="50" width="1" height="8" fill="#E99E4B" />
<rect x="72" y="50" width="2" height="1" fill="#FDEDCF" />
<rect x="74" y="50" width="4" height="1" fill="#ECA451" />
<rect x="96" y="50" width="2" height="10" fill="#E99E4B" />
<rect x="98" y="50" width="2" height="6" fill="#C5743B" />
<rect x="32" y="51" width="3" height="2" fill="#E99E4B" />
<rect x="35" y="51" width="1" height="1" fill="#ECA451" />
<rect x="55" y="51" width="1" height="1" fill="#FBE7C3" />
<rect x="70" y="51" width="1" height="1" fill="#FBE7C3" />
<rect x="71" y="51" width="1" height="1" fill="#FDEDCF" />
<rect x="72" y="51" width="2" height="1" fill="#FBE7C3" />
<rect x="74" y="51" width="4" height="1" fill="#E99E4B" />
<rect x="35" y="52" width="1" height="1" fill="#E99E4B" />
<rect x="47" y="52" width="1" height="2" fill="#E99E4B" />
<rect x="48" y="52" width="4" height="2" fill="#06041A" />
<rect x="52" y="52" width="3" height="2" fill="#E99E4B" />
<rect x="55" y="52" width="1" height="1" fill="#ECA451" />
<rect x="70" y="52" width="3" height="2" fill="#E99E4B" />
<rect x="73" y="52" width="1" height="1" fill="#ECA451" />
<rect x="74" y="52" width="4" height="2" fill="#06041A" />
<rect x="32" y="53" width="2" height="2" fill="#E99E4B" />
<rect x="34" y="53" width="2" height="1" fill="#ECA451" />
<rect x="55" y="53" width="1" height="3" fill="#E99E4B" />
<rect x="73" y="53" width="1" height="1" fill="#E99E4B" />
<rect x="85" y="53" width="1" height="1" fill="#ECA451" />
<rect x="90" y="53" width="1" height="3" fill="#E99E4B" />
<rect x="91" y="53" width="1" height="3" fill="#ECA451" />
<rect x="92" y="53" width="2" height="2" fill="#E99E4B" />
<rect x="34" y="54" width="1" height="2" fill="#E99E4B" />
<rect x="35" y="54" width="3" height="2" fill="#ECA451" />
<rect x="39" y="54" width="1" height="2" fill="#ECA451" />
<rect x="40" y="54" width="1" height="1" fill="#E99E4B" />
<rect x="44" y="54" width="4" height="2" fill="#06041A" />
<rect x="48" y="54" width="2" height="2" fill="#FBFBF9" />
<rect x="50" y="54" width="4" height="6" fill="#06041A" />
<rect x="54" y="54" width="1" height="4" fill="#E99E4B" />
<rect x="70" y="54" width="2" height="1" fill="#E99E4B" />
<rect x="72" y="54" width="2" height="6" fill="#06041A" />
<rect x="74" y="54" width="2" height="2" fill="#FBFBF9" />
<rect x="76" y="54" width="6" height="2" fill="#06041A" />
<rect x="85" y="54" width="1" height="1" fill="#E99E4B" />
<rect x="87" y="54" width="1" height="2" fill="#ECA451" />
<rect x="89" y="54" width="1" height="2" fill="#ECA451" />
<rect x="32" y="55" width="1" height="1" fill="#E99E4B" />
<rect x="33" y="55" width="1" height="1" fill="#ECA451" />
<rect x="38" y="55" width="1" height="1" fill="#ECA451" />
<rect x="40" y="55" width="2" height="1" fill="#ECA451" />
<rect x="42" y="55" width="1" height="1" fill="#E99E4B" />
<rect x="43" y="55" width="1" height="1" fill="#ECA451" />
<rect x="64" y="55" width="1" height="3" fill="#E99E4B" />
<rect x="65" y="55" width="1" height="3" fill="#ECA451" />
<rect x="66" y="55" width="3" height="3" fill="#E99E4B" />
<rect x="70" y="55" width="1" height="2" fill="#E99E4B" />
<rect x="71" y="55" width="1" height="1" fill="#ECA451" />
<rect x="84" y="55" width="3" height="1" fill="#ECA451" />
<rect x="88" y="55" width="1" height="1" fill="#ECA451" />
<rect x="92" y="55" width="2" height="1" fill="#ECA451" />
<rect x="24" y="56" width="2" height="14" fill="#C5743B" />
<rect x="26" y="56" width="2" height="14" fill="#E99E4B" />
<rect x="32" y="56" width="8" height="18" fill="#FDEDCF" />
<rect x="40" y="56" width="6" height="2" fill="#F2B35F" />
<rect x="46" y="56" width="4" height="2" fill="#06041A" />
<rect x="55" y="56" width="1" height="2" fill="#ECA451" />
<rect x="57" y="56" width="1" height="2" fill="#ECA451" />
<rect x="58" y="56" width="1" height="2" fill="#E99E4B" />
<rect x="59" y="56" width="1" height="2" fill="#ECA451" />
<rect x="60" y="56" width="1" height="2" fill="#E99E4B" />
<rect x="61" y="56" width="1" height="1" fill="#ECA451" />
<rect x="63" y="56" width="1" height="1" fill="#ECA451" />
<rect x="71" y="56" width="1" height="1" fill="#E99E4B" />
<rect x="74" y="56" width="6" height="2" fill="#06041A" />
<rect x="80" y="56" width="6" height="2" fill="#F2B35F" />
<rect x="86" y="56" width="6" height="20" fill="#FDEDCF" />
<rect x="92" y="56" width="2" height="1" fill="#F6CD9C" />
<rect x="98" y="56" width="2" height="14" fill="#E99E4B" />
<rect x="100" y="56" width="2" height="14" fill="#C5743B" />
<rect x="61" y="57" width="1" height="1" fill="#E99E4B" />
<rect x="63" y="57" width="1" height="1" fill="#E99E4B" />
<rect x="70" y="57" width="2" height="1" fill="#ECA451" />
<rect x="92" y="57" width="2" height="1" fill="#F7D4A8" />
<rect x="30" y="58" width="2" height="2" fill="#F1C38D" />
<rect x="40" y="58" width="2" height="8" fill="#FDEDCF" />
<rect x="42" y="58" width="6" height="2" fill="#F2B35F" />
<rect x="48" y="58" width="2" height="2" fill="#06041A" />
<rect x="54" y="58" width="4" height="1" fill="#F2B35F" />
<rect x="58" y="58" width="10" height="5" fill="#F9C16E" />
<rect x="68" y="58" width="4" height="1" fill="#F2B35F" />
<rect x="74" y="58" width="4" height="2" fill="#06041A" />
<rect x="78" y="58" width="6" height="1" fill="#F2B35F" />
<rect x="84" y="58" width="2" height="9" fill="#FDEDCF" />
<rect x="92" y="58" width="2" height="16" fill="#FDEDCF" />
<rect x="94" y="58" width="1" height="2" fill="#F1C38D" />
<rect x="95" y="58" width="1" height="1" fill="#F1BE85" />
<rect x="54" y="59" width="1" height="1" fill="#F2B35F" />
<rect x="55" y="59" width="1" height="5" fill="#F9C16E" />
<rect x="56" y="59" width="2" height="1" fill="#F2B35F" />
<rect x="68" y="59" width="1" height="1" fill="#F2B35F" />
<rect x="69" y="59" width="1" height="5" fill="#F9C16E" />
<rect x="70" y="59" width="2" height="1" fill="#F2B35F" />
<rect x="78" y="59" width="1" height="1" fill="#F2B35F" />
<rect x="79" y="59" width="1" height="5" fill="#F9C16E" />
<rect x="80" y="59" width="4" height="1" fill="#F2B35F" />
<rect x="95" y="59" width="1" height="1" fill="#F1C38D" />
<rect x="28" y="60" width="2" height="2" fill="#E9AE6E" />
<rect x="30" y="60" width="2" height="10" fill="#FDEDCF" />
<rect x="42" y="60" width="2" height="7" fill="#FDEDCF" />
<rect x="44" y="60" width="2" height="2" fill="#F2B35F" />
<rect x="46" y="60" width="9" height="2" fill="#F9C16E" />
<rect x="56" y="60" width="2" height="4" fill="#F9C16E" />
<rect x="68" y="60" width="1" height="4" fill="#F9C16E" />
<rect x="70" y="60" width="9" height="2" fill="#F9C16E" />
<rect x="80" y="60" width="2" height="2" fill="#F2B35F" />
<rect x="82" y="60" width="2" height="2" fill="#F8DCB6" />
<rect x="94" y="60" width="2" height="10" fill="#FDEDCF" />
<rect x="96" y="60" width="2" height="2" fill="#E9AE6E" />
<rect x="28" y="62" width="2" height="6" fill="#FDEDCF" />
<rect x="44" y="62" width="2" height="2" fill="#F7E2BE" />
<rect x="46" y="62" width="6" height="2" fill="#F9C16E" />
<rect x="52" y="62" width="2" height="14" fill="#FCF2D9" />
<rect x="54" y="62" width="1" height="2" fill="#F9C16E" />
<rect x="70" y="62" width="2" height="2" fill="#F9C16E" />
<rect x="72" y="62" width="2" height="14" fill="#FCF2D9" />
<rect x="74" y="62" width="5" height="1" fill="#F9C16E" />
<rect x="80" y="62" width="2" height="1" fill="#F7E2BE" />
<rect x="82" y="62" width="2" height="6" fill="#FDEDCF" />
<rect x="96" y="62" width="2" height="6" fill="#FDEDCF" />
<rect x="58" y="63" width="10" height="1" fill="#F7D4A8" />
<rect x="74" y="63" width="1" height="1" fill="#F8DCB6" />
<rect x="75" y="63" width="4" height="1" fill="#F9C16E" />
<rect x="80" y="63" width="2" height="1" fill="#FBE7C3" />
<rect x="44" y="64" width="8" height="8" fill="#FCF2D9" />
<rect x="54" y="64" width="18" height="2" fill="#FCF2D9" />
<rect x="74" y="64" width="8" height="8" fill="#FCF2D9" />
<rect x="40" y="66" width="2" height="6" fill="#FCF2D9" />
<rect x="54" y="66" width="6" height="2" fill="#FCF2D9" />
<rect x="60" y="66" width="6" height="2" fill="#242031" />
<rect x="66" y="66" width="6" height="2" fill="#FCF2D9" />
<rect x="42" y="67" width="1" height="1" fill="#FDEDCF" />
<rect x="43" y="67" width="1" height="5" fill="#FCF2D9" />
<rect x="84" y="67" width="2" height="5" fill="#FCF2D9" />
<rect x="28" y="68" width="2" height="1" fill="#F7D4A8" />
<rect x="42" y="68" width="1" height="4" fill="#FCF2D9" />
<rect x="54" y="68" width="4" height="10" fill="#FCF2D9" />
<rect x="58" y="68" width="2" height="2" fill="#242031" />
<rect x="60" y="68" width="6" height="1" fill="#5A5769" />
<rect x="66" y="68" width="2" height="2" fill="#242031" />
<rect x="68" y="68" width="4" height="10" fill="#FCF2D9" />
<rect x="82" y="68" width="2" height="4" fill="#FCF2D9" />
<rect x="96" y="68" width="1" height="1" fill="#F8DCB6" />
<rect x="97" y="68" width="1" height="1" fill="#F7D4A8" />
<rect x="28" y="69" width="1" height="7" fill="#E99E4B" />
<rect x="29" y="69" width="1" height="1" fill="#ECA451" />
<rect x="60" y="69" width="6" height="1" fill="#242031" />
<rect x="96" y="69" width="2" height="1" fill="#ECA451" />
<rect x="26" y="70" width="2" height="6" fill="#C5743B" />
<rect x="29" y="70" width="1" height="6" fill="#E99E4B" />
<rect x="30" y="70" width="2" height="2" fill="#F7E2BE" />
<rect x="58" y="70" width="1" height="4" fill="#242031" />
<rect x="59" y="70" width="3" height="3" fill="#06041A" />
<rect x="62" y="70" width="2" height="10" fill="#242031" />
<rect x="64" y="70" width="3" height="3" fill="#06041A" />
<rect x="67" y="70" width="1" height="4" fill="#242031" />
<rect x="94" y="70" width="1" height="1" fill="#F7E2BE" />
<rect x="95" y="70" width="1" height="2" fill="#F8DCB6" />
<rect x="96" y="70" width="2" height="6" fill="#E99E4B" />
<rect x="98" y="70" width="2" height="6" fill="#C5743B" />
<rect x="94" y="71" width="1" height="1" fill="#F8DCB6" />
<rect x="30" y="72" width="2" height="6" fill="#E99E4B" />
<rect x="40" y="72" width="6" height="8" fill="#FDEDCF" />
<rect x="46" y="72" width="6" height="2" fill="#FCF2D9" />
<rect x="74" y="72" width="6" height="2" fill="#FCF2D9" />
<rect x="80" y="72" width="6" height="8" fill="#FDEDCF" />
<rect x="94" y="72" width="2" height="6" fill="#E99E4B" />
<rect x="59" y="73" width="3" height="1" fill="#242031" />
<rect x="64" y="73" width="3" height="1" fill="#242031" />
<rect x="32" y="74" width="2" height="28" fill="#E99E4B" />
<rect x="34" y="74" width="6" height="2" fill="#FDEDCF" />
<rect x="46" y="74" width="2" height="2" fill="#FBE7C3" />
<rect x="48" y="74" width="4" height="2" fill="#FCF2D9" />
<rect x="58" y="74" width="2" height="4" fill="#FCF2D9" />
<rect x="60" y="74" width="2" height="2" fill="#242031" />
<rect x="64" y="74" width="2" height="2" fill="#242031" />
<rect x="66" y="74" width="2" height="4" fill="#FCF2D9" />
<rect x="74" y="74" width="4" height="2" fill="#FCF2D9" />
<rect x="78" y="74" width="2" height="22" fill="#FDEDCF" />
<rect x="92" y="74" width="2" height="1" fill="#ECA451" />
<rect x="92" y="75" width="2" height="29" fill="#E99E4B" />
<rect x="28" y="76" width="2" height="2" fill="#C5743B" />
<rect x="34" y="76" width="2" height="3" fill="#E99E4B" />
<rect x="36" y="76" width="4" height="2" fill="#FDEDCF" />
<rect x="46" y="76" width="2" height="10" fill="#FDEDCF" />
<rect x="48" y="76" width="2" height="2" fill="#F7E2BE" />
<rect x="50" y="76" width="2" height="1" fill="#FCF2D9" />
<rect x="52" y="76" width="2" height="2" fill="#242031" />
<rect x="60" y="76" width="2" height="2" fill="#FCF2D9" />
<rect x="64" y="76" width="2" height="2" fill="#FCF2D9" />
<rect x="72" y="76" width="2" height="2" fill="#242031" />
<rect x="74" y="76" width="2" height="1" fill="#FCF2D9" />
<rect x="76" y="76" width="2" height="2" fill="#F7E2BE" />
<rect x="86" y="76" width="4" height="2" fill="#FDEDCF" />
<rect x="90" y="76" width="2" height="3" fill="#E99E4B" />
<rect x="96" y="76" width="2" height="2" fill="#C5743B" />
<rect x="50" y="77" width="2" height="1" fill="#FDEDCF" />
<rect x="74" y="77" width="2" height="1" fill="#FDEDCF" />
<rect x="30" y="78" width="2" height="8" fill="#C5743B" />
<rect x="36" y="78" width="1" height="1" fill="#E99E4B" />
<rect x="37" y="78" width="1" height="2" fill="#ECA451" />
<rect x="38" y="78" width="2" height="2" fill="#F1C38D" />
<rect x="48" y="78" width="2" height="18" fill="#FDEDCF" />
<rect x="50" y="78" width="2" height="6" fill="#F7E2BE" />
<rect x="52" y="78" width="2" height="1" fill="#F8DCB6" />
<rect x="54" y="78" width="8" height="2" fill="#242031" />
<rect x="64" y="78" width="8" height="2" fill="#242031" />
<rect x="72" y="78" width="1" height="1" fill="#F8DCB6" />
<rect x="73" y="78" width="3" height="6" fill="#F7E2BE" />
<rect x="76" y="78" width="2" height="18" fill="#FDEDCF" />
<rect x="86" y="78" width="1" height="1" fill="#F5C894" />
<rect x="87" y="78" width="1" height="2" fill="#F1C38D" />
<rect x="88" y="78" width="2" height="2" fill="#ECA451" />
<rect x="94" y="78" width="2" height="12" fill="#C5743B" />
<rect x="34" y="79" width="1" height="25" fill="#E99E4B" />
<rect x="35" y="79" width="2" height="1" fill="#ECA451" />
<rect x="52" y="79" width="2" height="5" fill="#F7E2BE" />
<rect x="72" y="79" width="1" height="5" fill="#F7E2BE" />
<rect x="86" y="79" width="1" height="1" fill="#F1C38D" />
<rect x="90" y="79" width="1" height="12" fill="#E99E4B" />
<rect x="91" y="79" width="1" height="1" fill="#ECA451" />
<rect x="35" y="80" width="5" height="1" fill="#E99E4B" />
<rect x="40" y="80" width="2" height="2" fill="#F1BE85" />
<rect x="42" y="80" width="4" height="2" fill="#FDEDCF" />
<rect x="54" y="80" width="1" height="1" fill="#F8DCB6" />
<rect x="55" y="80" width="1" height="2" fill="#F7E2BE" />
<rect x="56" y="80" width="14" height="2" fill="#FCF2D9" />
<rect x="70" y="80" width="2" height="4" fill="#F7E2BE" />
<rect x="80" y="80" width="4" height="2" fill="#FDEDCF" />
<rect x="84" y="80" width="1" height="2" fill="#F1C38D" />
<rect x="85" y="80" width="1" height="1" fill="#F1BE85" />
<rect x="86" y="80" width="2" height="3" fill="#ECA451" />
<rect x="88" y="80" width="2" height="5" fill="#E99E4B" />
<rect x="91" y="80" width="1" height="26" fill="#E99E4B" />
<rect x="35" y="81" width="4" height="4" fill="#E99E4B" />
<rect x="39" y="81" width="1" height="2" fill="#ECA451" />
<rect x="54" y="81" width="1" height="3" fill="#F7E2BE" />
<rect x="85" y="81" width="1" height="1" fill="#F1C38D" />
<rect x="40" y="82" width="2" height="2" fill="#E99E4B" />
<rect x="42" y="82" width="2" height="10" fill="#F5C894" />
<rect x="44" y="82" width="2" height="2" fill="#FDEDCF" />
<rect x="55" y="82" width="1" height="1" fill="#F8DCB6" />
<rect x="56" y="82" width="2" height="2" fill="#E4CAA8" />
<rect x="58" y="82" width="10" height="2" fill="#FCF2D9" />
<rect x="68" y="82" width="2" height="2" fill="#E4CAA8" />
<rect x="80" y="82" width="2" height="4" fill="#FDEDCF" />
<rect x="82" y="82" width="2" height="6" fill="#F6CD9C" />
<rect x="84" y="82" width="2" height="6" fill="#ECA451" />
<rect x="39" y="83" width="1" height="2" fill="#E99E4B" />
<rect x="55" y="83" width="1" height="1" fill="#F7E2BE" />
<rect x="86" y="83" width="1" height="1" fill="#E99E4B" />
<rect x="87" y="83" width="1" height="5" fill="#ECA451" />
<rect x="40" y="84" width="1" height="4" fill="#E99E4B" />
<rect x="41" y="84" width="1" height="2" fill="#ECA451" />
<rect x="44" y="84" width="2" height="2" fill="#F7E2BE" />
<rect x="50" y="84" width="6" height="12" fill="#FDEDCF" />
<rect x="56" y="84" width="1" height="2" fill="#FBE7C3" />
<rect x="57" y="84" width="1" height="1" fill="#F7E2BE" />
<rect x="58" y="84" width="2" height="2" fill="#E4CAA8" />
<rect x="60" y="84" width="8" height="2" fill="#E0C4A2" />
<rect x="68" y="84" width="1" height="1" fill="#F7E2BE" />
<rect x="69" y="84" width="1" height="2" fill="#FBE7C3" />
<rect x="70" y="84" width="6" height="8" fill="#FDEDCF" />
<rect x="86" y="84" width="1" height="4" fill="#ECA451" />
<rect x="35" y="85" width="3" height="4" fill="#E99E4B" />
<rect x="38" y="85" width="2" height="1" fill="#ECA451" />
<rect x="57" y="85" width="1" height="1" fill="#FBE7C3" />
<rect x="68" y="85" width="1" height="1" fill="#FBE7C3" />
<rect x="88" y="85" width="1" height="3" fill="#ECA451" />
<rect x="89" y="85" width="1" height="23" fill="#E99E4B" />
<rect x="28" y="86" width="2" height="10" fill="#C5743B" />
<rect x="30" y="86" width="2" height="10" fill="#E99E4B" />
<rect x="38" y="86" width="2" height="1" fill="#E99E4B" />
<rect x="41" y="86" width="1" height="1" fill="#E99E4B" />
<rect x="44" y="86" width="2" height="2" fill="#F8DCB6" />
<rect x="46" y="86" width="1" height="2" fill="#FBE7C3" />
<rect x="47" y="86" width="1" height="8" fill="#FDEDCF" />
<rect x="56" y="86" width="14" height="6" fill="#FDEDCF" />
<rect x="80" y="86" width="2" height="2" fill="#FBE7C3" />
<rect x="38" y="87" width="1" height="1" fill="#E99E4B" />
<rect x="39" y="87" width="1" height="4" fill="#ECA451" />
<rect x="41" y="87" width="1" height="3" fill="#ECA451" />
<rect x="38" y="88" width="1" height="2" fill="#ECA451" />
<rect x="40" y="88" width="1" height="2" fill="#ECA451" />
<rect x="44" y="88" width="1" height="1" fill="#F8DCB6" />
<rect x="45" y="88" width="1" height="1" fill="#F7E2BE" />
<rect x="46" y="88" width="1" height="6" fill="#FDEDCF" />
<rect x="80" y="88" width="2" height="6" fill="#FDEDCF" />
<rect x="82" y="88" width="1" height="2" fill="#F8DCB6" />
<rect x="83" y="88" width="1" height="2" fill="#F7D4A8" />
<rect x="84" y="88" width="1" height="1" fill="#ECA451" />
<rect x="85" y="88" width="4" height="1" fill="#E99E4B" />
<rect x="35" y="89" width="2" height="15" fill="#E99E4B" />
<rect x="37" y="89" width="1" height="1" fill="#ECA451" />
<rect x="44" y="89" width="2" height="5" fill="#FDEDCF" />
<rect x="84" y="89" width="2" height="5" fill="#E99E4B" />
<rect x="86" y="89" width="2" height="1" fill="#ECA451" />
<rect x="88" y="89" width="1" height="10" fill="#E99E4B" />
<rect x="37" y="90" width="2" height="4" fill="#E99E4B" />
<rect x="40" y="90" width="2" height="3" fill="#E99E4B" />
<rect x="82" y="90" width="1" height="1" fill="#F6CD9C" />
<rect x="83" y="90" width="1" height="2" fill="#F5C894" />
<rect x="86" y="90" width="1" height="3" fill="#E99E4B" />
<rect x="87" y="90" width="1" height="2" fill="#ECA451" />
<rect x="94" y="90" width="2" height="10" fill="#E99E4B" />
<rect x="96" y="90" width="2" height="10" fill="#C5743B" />
<rect x="39" y="91" width="1" height="3" fill="#E99E4B" />
<rect x="82" y="91" width="1" height="1" fill="#F5C894" />
<rect x="90" y="91" width="1" height="1" fill="#ECA451" />
<rect x="42" y="92" width="2" height="3" fill="#E99E4B" />
<rect x="56" y="92" width="16" height="8" fill="#FCF2D9" />
<rect x="72" y="92" width="4" height="22" fill="#FDEDCF" />
<rect x="82" y="92" width="1" height="6" fill="#E99E4B" />
<rect x="83" y="92" width="1" height="1" fill="#ECA451" />
<rect x="87" y="92" width="1" height="3" fill="#E99E4B" />
<rect x="90" y="92" width="1" height="14" fill="#E99E4B" />
<rect x="40" y="93" width="1" height="17" fill="#E99E4B" />
<rect x="41" y="93" width="1" height="3" fill="#ECA451" />
<rect x="83" y="93" width="1" height="3" fill="#E99E4B" />
<rect x="86" y="93" width="1" height="1" fill="#ECA451" />
<rect x="37" y="94" width="3" height="2" fill="#ECA451" />
<rect x="44" y="94" width="2" height="5" fill="#E99E4B" />
<rect x="46" y="94" width="2" height="2" fill="#F1BE85" />
<rect x="80" y="94" width="2" height="1" fill="#ECA451" />
<rect x="84" y="94" width="1" height="3" fill="#E99E4B" />
<rect x="85" y="94" width="1" height="4" fill="#ECA451" />
<rect x="86" y="94" width="1" height="4" fill="#E99E4B" />
<rect x="42" y="95" width="1" height="3" fill="#E99E4B" />
<rect x="43" y="95" width="1" height="1" fill="#ECA451" />
<rect x="80" y="95" width="1" height="1" fill="#E99E4B" />
<rect x="81" y="95" width="1" height="5" fill="#ECA451" />
<rect x="87" y="95" width="1" height="1" fill="#ECA451" />
<rect x="30" y="96" width="2" height="6" fill="#C5743B" />
<rect x="37" y="96" width="3" height="1" fill="#E99E4B" />
<rect x="41" y="96" width="1" height="1" fill="#E99E4B" />
<rect x="43" y="96" width="1" height="1" fill="#E99E4B" />
<rect x="46" y="96" width="2" height="4" fill="#E99E4B" />
<rect x="48" y="96" width="2" height="2" fill="#F1BE85" />
<rect x="50" y="96" width="2" height="2" fill="#FBE7C3" />
<rect x="52" y="96" width="4" height="18" fill="#FDEDCF" />
<rect x="76" y="96" width="1" height="4" fill="#F7E2BE" />
<rect x="77" y="96" width="1" height="2" fill="#F8DCB6" />
<rect x="78" y="96" width="3" height="2" fill="#ECA451" />
<rect x="83" y="96" width="1" height="4" fill="#ECA451" />
<rect x="87" y="96" width="1" height="1" fill="#E99E4B" />
<rect x="37" y="97" width="1" height="1" fill="#ECA451" />
<rect x="38" y="97" width="2" height="1" fill="#E99E4B" />
<rect x="41" y="97" width="1" height="1" fill="#ECA451" />
<rect x="43" y="97" width="1" height="3" fill="#ECA451" />
<rect x="84" y="97" width="1" height="1" fill="#ECA451" />
<rect x="87" y="97" width="1" height="5" fill="#ECA451" />
<rect x="37" y="98" width="2" height="10" fill="#E99E4B" />
<rect x="39" y="98" width="1" height="1" fill="#ECA451" />
<rect x="41" y="98" width="1" height="1" fill="#E99E4B" />
<rect x="42" y="98" width="1" height="2" fill="#ECA451" />
<rect x="48" y="98" width="2" height="2" fill="#F6CD9C" />
<rect x="50" y="98" width="2" height="14" fill="#FDEDCF" />
<rect x="77" y="98" width="1" height="2" fill="#F7E2BE" />
<rect x="78" y="98" width="2" height="1" fill="#F1C38D" />
<rect x="80" y="98" width="1" height="2" fill="#ECA451" />
<rect x="82" y="98" width="1" height="2" fill="#ECA451" />
<rect x="84" y="98" width="2" height="1" fill="#F6CD9C" />
<rect x="86" y="98" width="1" height="4" fill="#ECA451" />
<rect x="39" y="99" width="1" height="11" fill="#E99E4B" />
<rect x="41" y="99" width="1" height="3" fill="#ECA451" />
<rect x="44" y="99" width="1" height="1" fill="#E99E4B" />
<rect x="45" y="99" width="1" height="1" fill="#ECA451" />
<rect x="78" y="99" width="2" height="1" fill="#F5C894" />
<rect x="84" y="99" width="1" height="1" fill="#F6CD9C" />
<rect x="85" y="99" width="1" height="5" fill="#F7D4A8" />
<rect x="88" y="99" width="1" height="1" fill="#ECA451" />
<rect x="42" y="100" width="1" height="1" fill="#F7E2BE" />
<rect x="43" y="100" width="1" height="4" fill="#FBE7C3" />
<rect x="44" y="100" width="6" height="4" fill="#FDEDCF" />
<rect x="56" y="100" width="2" height="16" fill="#FDEDCF" />
<rect x="58" y="100" width="12" height="4" fill="#FCF2D9" />
<rect x="70" y="100" width="2" height="16" fill="#FDEDCF" />
<rect x="76" y="100" width="7" height="4" fill="#FDEDCF" />
<rect x="83" y="100" width="1" height="1" fill="#FBE7C3" />
<rect x="84" y="100" width="1" height="4" fill="#F7D4A8" />
<rect x="88" y="100" width="1" height="8" fill="#E99E4B" />
<rect x="94" y="100" width="2" height="4" fill="#CD9974" />
<rect x="42" y="101" width="1" height="3" fill="#FBE7C3" />
<rect x="83" y="101" width="1" height="3" fill="#FDEDCF" />
<rect x="32" y="102" width="2" height="2" fill="#CD9974" />
<rect x="41" y="102" width="1" height="8" fill="#E99E4B" />
<rect x="86" y="102" width="2" height="8" fill="#E99E4B" />
<rect x="34" y="104" width="2" height="4" fill="#CD9974" />
<rect x="36" y="104" width="1" height="4" fill="#E99E4B" />
<rect x="42" y="104" width="2" height="8" fill="#E99E4B" />
<rect x="44" y="104" width="2" height="2" fill="#F7E2BE" />
<rect x="46" y="104" width="4" height="4" fill="#FDEDCF" />
<rect x="58" y="104" width="2" height="12" fill="#FDEDCF" />
<rect x="60" y="104" width="8" height="4" fill="#FCF2D9" />
<rect x="68" y="104" width="2" height="12" fill="#FDEDCF" />
<rect x="76" y="104" width="6" height="4" fill="#FDEDCF" />
<rect x="82" y="104" width="1" height="2" fill="#FBE7C3" />
<rect x="83" y="104" width="1" height="2" fill="#F7E2BE" />
<rect x="84" y="104" width="2" height="6" fill="#E99E4B" />
<rect x="92" y="104" width="2" height="2" fill="#CD9974" />
<rect x="44" y="106" width="2" height="8" fill="#E99E4B" />
<rect x="82" y="106" width="1" height="1" fill="#ECA451" />
<rect x="83" y="106" width="1" height="6" fill="#E99E4B" />
<rect x="90" y="106" width="2" height="2" fill="#CD9974" />
<rect x="82" y="107" width="1" height="5" fill="#E99E4B" />
<rect x="36" y="108" width="2" height="2" fill="#CD9974" />
<rect x="38" y="108" width="1" height="2" fill="#E99E4B" />
<rect x="46" y="108" width="2" height="6" fill="#E99E4B" />
<rect x="48" y="108" width="2" height="4" fill="#FDEDCF" />
<rect x="60" y="108" width="8" height="8" fill="#FDEDCF" />
<rect x="76" y="108" width="4" height="4" fill="#FDEDCF" />
<rect x="80" y="108" width="2" height="6" fill="#E99E4B" />
<rect x="88" y="108" width="2" height="2" fill="#CD9974" />
<rect x="38" y="110" width="4" height="2" fill="#CD9974" />
<rect x="84" y="110" width="4" height="2" fill="#CD9974" />
<rect x="42" y="112" width="2" height="2" fill="#CD9974" />
<rect x="48" y="112" width="2" height="2" fill="#E99E4B" />
<rect x="50" y="112" width="2" height="2" fill="#FBE7C3" />
<rect x="76" y="112" width="2" height="2" fill="#FDEDCF" />
<rect x="78" y="112" width="2" height="2" fill="#E99E4B" />
<rect x="82" y="112" width="2" height="2" fill="#CD9974" />
<rect x="44" y="114" width="6" height="2" fill="#CD9974" />
<rect x="50" y="114" width="2" height="2" fill="#D1A984" />
<rect x="52" y="114" width="2" height="2" fill="#FBE7C3" />
<rect x="54" y="114" width="2" height="2" fill="#FDEDCF" />
<rect x="72" y="114" width="3" height="2" fill="#FDEDCF" />
<rect x="75" y="114" width="1" height="1" fill="#FBE7C3" />
<rect x="76" y="114" width="6" height="1" fill="#D1A984" />
<rect x="75" y="115" width="1" height="1" fill="#FDEDCF" />
<rect x="76" y="115" width="1" height="3" fill="#D2B08D" />
<rect x="77" y="115" width="5" height="1" fill="#D1A984" />
<rect x="50" y="116" width="1" height="2" fill="#D1A984" />
<rect x="51" y="116" width="25" height="2" fill="#D2B08D" />
<rect x="77" y="116" width="1" height="1" fill="#D1A984" />
<rect x="77" y="117" width="1" height="1" fill="#D2B08D" />
<rect x="52" y="118" width="24" height="1" fill="#D2B08D" />
</svg>