<?xml version="1.0" encoding="UTF-8" ?>
<svg version="1.1" width="128" height="128" xmlns="http://www.w3.org/2000/svg" shape-rendering="crispEdges">
<rect x="61" y="44" width="5" height="4" fill="#695D56" />
<rect x="59" y="45" width="1" height="3" fill="#72655E" />
<rect x="60" y="45" width="1" height="3" fill="#695D56" />
<rect x="66" y="45" width="2" height="7" fill="#695D56" />
<rect x="68" y="46" width="1" height="4" fill="#695D56" />
<rect x="64" y="49" width="2" height="1" fill="#FDF2CB" />
<rect x="64" y="50" width="2" height="8" fill="#695D56" />
<rect x="63" y="52" width="1" height="6" fill="#695D56" />
<rect x="62" y="53" width="1" height="5" fill="#695D56" />
<rect x="62" y="60" width="4" height="2" fill="#695D56" />
<rect x="38" y="64" width="6" height="4" fill="#FADDA8" />
<rect x="84" y="64" width="6" height="4" fill="#FADDA8" />
<rect x="44" y="66" width="2" height="4" fill="#FADDA8" />
<rect x="82" y="66" width="2" height="4" fill="#FADDA8" />
<rect x="38" y="68" width="2" height="6" fill="#FADDA8" />
<rect x="40" y="68" width="4" height="16" fill="#DDAEA2" />
<rect x="46" y="68" width="2" height="4" fill="#FADDA8" />
<rect x="80" y="68" width="2" height="4" fill="#FADDA8" />
<rect x="84" y="68" width="4" height="15" fill="#DDAEA2" />
<rect x="88" y="68" width="2" height="6" fill="#FADDA8" />
<rect x="44" y="70" width="2" height="6" fill="#DDAEA2" />
<rect x="48" y="70" width="2" height="4" fill="#FADDA8" />
<rect x="78" y="70" width="2" height="4" fill="#FADDA8" />
<rect x="82" y="70" width="2" height="6" fill="#DDAEA2" />
<rect x="50" y="71" width="1" height="1" fill="#FDF2CB" />
<rect x="77" y="71" width="1" height="1" fill="#FDF2CB" />
<rect x="46" y="72" width="2" height="4" fill="#DDAEA2" />
<rect x="50" y="72" width="2" height="2" fill="#FADDA8" />
<rect x="74" y="72" width="4" height="2" fill="#FADDA8" />
<rect x="80" y="72" width="2" height="4" fill="#DDAEA2" />
<rect x="52" y="73" width="1" height="17" fill="#FADDA8" />
<rect x="36" y="74" width="2" height="54" fill="#FADDA8" />
<rect x="38" y="74" width="2" height="11" fill="#DDAEA2" />
<rect x="48" y="74" width="4" height="4" fill="#DDAEA2" />
<rect x="53" y="74" width="23" height="16" fill="#FADDA8" />
<rect x="76" y="74" width="4" height="4" fill="#DDAEA2" />
<rect x="88" y="74" width="2" height="10" fill="#DDAEA2" />
<rect x="90" y="74" width="2" height="54" fill="#FADDA8" />
<rect x="44" y="76" width="4" height="4" fill="#FBEBD4" />
<rect x="80" y="76" width="4" height="4" fill="#FBEBD4" />
<rect x="48" y="78" width="4" height="12" fill="#FADDA8" />
<rect x="76" y="78" width="4" height="12" fill="#FADDA8" />
<rect x="44" y="80" width="2" height="2" fill="#FBEBD4" />
<rect x="46" y="80" width="2" height="32" fill="#FADDA8" />
<rect x="80" y="80" width="2" height="34" fill="#FADDA8" />
<rect x="82" y="80" width="2" height="2" fill="#FBEBD4" />
<rect x="44" y="82" width="2" height="32" fill="#FADDA8" />
<rect x="82" y="82" width="2" height="32" fill="#FADDA8" />
<rect x="84" y="83" width="2" height="1" fill="#DDAEA2" />
<rect x="86" y="83" width="2" height="1" fill="#E8BFA4" />
<rect x="40" y="84" width="2" height="1" fill="#DDAEA2" />
<rect x="42" y="84" width="2" height="30" fill="#FADDA8" />
<rect x="84" y="84" width="1" height="30" fill="#FADDA8" />
<rect x="85" y="84" width="2" height="1" fill="#F0CDA4" />
<rect x="87" y="84" width="3" height="32" fill="#FADDA8" />
<rect x="38" y="85" width="4" height="31" fill="#FADDA8" />
<rect x="85" y="85" width="2" height="1" fill="#D6B096" />
<rect x="92" y="85" width="1" height="1" fill="#FDF2CB" />
<rect x="85" y="86" width="2" height="28" fill="#FADDA8" />
<rect x="48" y="90" width="2" height="18" fill="#FADDA8" />
<rect x="50" y="90" width="4" height="7" fill="#695D56" />
<rect x="54" y="90" width="20" height="8" fill="#FADDA8" />
<rect x="74" y="90" width="4" height="7" fill="#695D56" />
<rect x="78" y="90" width="2" height="18" fill="#FADDA8" />
<rect x="50" y="97" width="4" height="3" fill="#FADDA8" />
<rect x="74" y="97" width="4" height="3" fill="#FADDA8" />
<rect x="54" y="98" width="3" height="2" fill="#FADDA8" />
<rect x="57" y="98" width="3" height="30" fill="#FBEBD4" />
<rect x="60" y="98" width="8" height="2" fill="#72655E" />
<rect x="68" y="98" width="3" height="30" fill="#FBEBD4" />
<rect x="71" y="98" width="3" height="2" fill="#FADDA8" />
<rect x="50" y="100" width="2" height="2" fill="#FADDA8" />
<rect x="52" y="100" width="5" height="28" fill="#FBEBD4" />
<rect x="60" y="100" width="8" height="4" fill="#584E49" />
<rect x="71" y="100" width="5" height="28" fill="#FBEBD4" />
<rect x="76" y="100" width="2" height="2" fill="#FADDA8" />
<rect x="50" y="102" width="2" height="26" fill="#FBEBD4" />
<rect x="76" y="102" width="2" height="26" fill="#FBEBD4" />
<rect x="60" y="104" width="2" height="4" fill="#FBEBD4" />
<rect x="62" y="104" width="4" height="2" fill="#584E49" />
<rect x="66" y="104" width="2" height="4" fill="#FBEBD4" />
<rect x="62" y="106" width="4" height="1" fill="#FBEBD4" />
<rect x="62" y="107" width="4" height="3" fill="#7E544D" />
<rect x="48" y="108" width="2" height="20" fill="#FBEBD4" />
<rect x="60" y="108" width="1" height="1" fill="#DDAEA2" />
<rect x="61" y="108" width="1" height="1" fill="#7E544D" />
<rect x="66" y="108" width="1" height="2" fill="#7E544D" />
<rect x="67" y="108" width="1" height="4" fill="#D28980" />
<rect x="78" y="108" width="2" height="20" fill="#FBEBD4" />
<rect x="60" y="109" width="2" height="2" fill="#875851" />
<rect x="62" y="110" width="5" height="3" fill="#D28980" />
<rect x="60" y="111" width="2" height="2" fill="#D28980" />
<rect x="46" y="112" width="2" height="16" fill="#FBEBD4" />
<rect x="67" y="112" width="1" height="1" fill="#F0CDA4" />
<rect x="60" y="113" width="2" height="15" fill="#FBEBD4" />
<rect x="62" y="113" width="4" height="1" fill="#D28980" />
<rect x="66" y="113" width="1" height="15" fill="#FBEBD4" />
<rect x="67" y="113" width="1" height="1" fill="#FDF2CB" />
<rect x="42" y="114" width="4" height="14" fill="#FBEBD4" />
<rect x="62" y="114" width="4" height="14" fill="#FBEBD4" />
<rect x="67" y="114" width="1" height="14" fill="#FBEBD4" />
<rect x="80" y="114" width="6" height="14" fill="#FBEBD4" />
<rect x="86" y="114" width="1" height="2" fill="#FADDA8" />
<rect x="38" y="116" width="2" height="12" fill="#FADDA8" />
<rect x="40" y="116" width="2" height="12" fill="#FBEBD4" />
<rect x="86" y="116" width="2" height="12" fill="#FBEBD4" />
<rect x="88" y="116" width="2" height="12" fill="#FADDA8" />
<rect x="92" y="126" width="1" height="1" fill="#FDF2CB" />
</svg>